<?xml version="1.0" encoding="UTF-8" standalone="no"?>
<svg
   xmlns:dc="http://purl.org/dc/elements/1.1/"
   xmlns:cc="http://creativecommons.org/ns#"
   xmlns:rdf="http://www.w3.org/1999/02/22-rdf-syntax-ns#"
   xmlns:svg="http://www.w3.org/2000/svg"
   xmlns="http://www.w3.org/2000/svg"
   xmlns:sodipodi="http://sodipodi.sourceforge.net/DTD/sodipodi-0.dtd"
   xmlns:inkscape="http://www.inkscape.org/namespaces/inkscape"
   id="svg"
   version="1.1"
   width="400"
   height="504.46701"
   style="display:block"
   sodipodi:docname="icono.svg"
   inkscape:version="0.92.3 (2405546, 2018-03-11)">
  <metadata
     id="metadata12">
    <rdf:RDF>
      <cc:Work
         rdf:about="">
        <dc:format>image/svg+xml</dc:format>
        <dc:type
           rdf:resource="http://purl.org/dc/dcmitype/StillImage" />
        <dc:title></dc:title>
      </cc:Work>
    </rdf:RDF>
  </metadata>
  <defs
     id="defs10" />
  <sodipodi:namedview
     pagecolor="#ffffff"
     bordercolor="#666666"
     borderopacity="1"
     objecttolerance="10"
     gridtolerance="10"
     guidetolerance="10"
     inkscape:pageopacity="0"
     inkscape:pageshadow="2"
     inkscape:window-width="1366"
     inkscape:window-height="745"
     id="namedview8"
     showgrid="false"
     fit-margin-top="0"
     fit-margin-left="0"
     fit-margin-right="0"
     fit-margin-bottom="0"
     inkscape:zoom="0.098333333"
     inkscape:cx="951.5"
     inkscape:cy="-695.533"
     inkscape:window-x="-8"
     inkscape:window-y="-8"
     inkscape:window-maximized="1"
     inkscape:current-layer="svg" />
  <g
     id="svgg">
    <path
       id="path0"
       d="m 374.777,0.42 c 0,0.385 -0.14,0.421 -1.663,0.421 h -1.663 l -0.141,0.832 -0.141,0.832 -1.612,0.061 -1.612,0.061 -0.064,0.894 c -0.065,0.889 -0.069,0.893 -0.894,0.893 -0.824,0 -0.828,0.004 -0.828,0.829 0,0.824 -0.005,0.829 -0.894,0.893 -0.864,0.063 -0.895,0.09 -0.957,0.841 -0.061,0.729 -0.112,0.78 -0.841,0.841 -0.751,0.062 -0.779,0.093 -0.841,0.958 -0.064,0.889 -0.069,0.893 -0.893,0.893 -0.827,0 -0.829,0.002 -0.829,0.841 v 0.84 h -0.841 c -0.839,0 -0.841,0.003 -0.841,0.829 0,0.825 -0.004,0.829 -0.893,0.894 l -0.893,0.064 -0.061,1.734 -0.061,1.734 h -0.833 c -0.831,0 -0.832,0.002 -0.832,0.841 v 0.841 h -0.841 -0.841 v 0.841 c 0,0.837 -0.003,0.84 -0.822,0.84 -0.795,0 -0.827,0.028 -0.964,0.841 -0.118,0.7 -0.224,0.841 -0.632,0.841 -1.066,0 -1.155,0.147 -1.155,1.914 v 1.659 h -0.841 -0.84 v 0.841 0.841 h -0.841 -0.841 v 0.934 0.933 l -0.893,0.065 c -0.867,0.063 -0.896,0.088 -0.959,0.853 -0.063,0.766 -0.088,0.788 -0.893,0.788 h -0.828 v 1.669 1.669 l -0.789,0.065 c -0.765,0.063 -0.79,0.092 -0.852,0.959 -0.065,0.889 -0.069,0.893 -0.894,0.893 -0.824,0 -0.828,0.004 -0.828,0.829 0,0.824 -0.005,0.829 -0.894,0.893 l -0.893,0.065 -0.061,1.612 -0.061,1.612 -0.832,0.14 c -0.804,0.136 -0.833,0.169 -0.833,0.963 0,0.819 -0.003,0.822 -0.84,0.822 h -0.841 v 0.841 c 0,0.838 -0.003,0.841 -0.823,0.841 -0.793,0 -0.827,0.029 -0.962,0.829 -0.131,0.773 -0.192,0.834 -0.912,0.893 l -0.771,0.065 -0.062,1.734 -0.061,1.734 h -0.832 c -0.831,0 -0.832,10e-4 -0.832,0.841 v 0.84 h -0.841 -0.841 v 0.841 c 0,0.789 -0.038,0.841 -0.613,0.841 -1.203,0 -1.278,0.112 -1.278,1.914 v 1.659 h -0.841 -0.841 v 0.841 0.841 h -0.841 -0.841 v 0.946 0.946 h -0.864 -0.865 l 0.077,1.835 0.076,1.835 -0.631,0.111 c -0.474,0.083 -0.648,0.24 -0.702,0.634 -0.125,0.913 -0.658,1.315 -1.554,1.171 -0.789,-0.126 -0.791,-0.124 -0.791,0.612 0,0.721 -0.02,0.738 -0.841,0.738 h -0.841 v 0.841 c 0,0.837 -0.004,0.841 -0.818,0.841 -1.207,0 -1.405,0.777 -0.615,2.404 0.602,1.238 0.219,1.799 -1.227,1.799 -0.834,0 -0.913,0.046 -0.913,0.526 0,0.473 -0.084,0.525 -0.841,0.525 h -0.841 v 0.841 0.841 h -0.841 c -0.838,0 -0.84,0.002 -0.84,0.829 0,0.824 -0.005,0.829 -0.894,0.893 l -0.893,0.065 -0.061,1.734 -0.061,1.734 h -0.832 c -0.831,0 -0.833,0.001 -0.833,0.841 v 0.84 h -0.84 c -0.839,0 -0.841,0.003 -0.841,0.829 0,0.805 -0.022,0.829 -0.788,0.893 -0.766,0.063 -0.791,0.091 -0.853,0.958 l -0.065,0.894 h -0.943 c -0.632,0 -0.932,0.086 -0.909,0.262 0.019,0.145 0.023,0.902 0.009,1.682 l -0.025,1.419 h -0.84 c -0.838,0 -0.841,0.003 -0.841,0.822 0,0.796 -0.027,0.827 -0.841,0.964 -0.813,0.138 -0.841,0.169 -0.841,0.965 0,0.815 -0.006,0.822 -0.818,0.822 -1.127,0 -1.531,1.202 -0.666,1.985 1.306,1.182 0.681,2.639 -1.134,2.639 -0.709,0 -0.955,0.082 -0.955,0.316 0,0.227 -0.234,0.315 -0.841,0.315 h -0.841 v 0.841 0.841 h -0.84 c -0.809,0 -0.841,0.026 -0.842,0.683 0,0.375 -0.237,1.148 -0.525,1.717 -0.323,0.636 -0.525,1.389 -0.525,1.956 0,0.902 -0.059,0.981 -2.733,3.647 -1.502,1.498 -2.732,2.797 -2.732,2.885 0,0.089 -0.275,0.323 -0.61,0.521 -0.529,0.313 -0.629,0.527 -0.756,1.618 -0.13,1.118 -0.22,1.302 -0.822,1.674 -0.372,0.23 -0.809,0.666 -0.971,0.969 -0.162,0.303 -0.556,0.686 -0.876,0.851 -0.32,0.166 -0.719,0.565 -0.885,0.887 -0.167,0.323 -0.542,0.695 -0.835,0.828 -0.292,0.134 -0.668,0.507 -0.836,0.83 -0.167,0.323 -0.588,0.795 -0.935,1.05 -0.505,0.372 -0.659,0.679 -0.779,1.546 -0.145,1.06 -0.218,1.152 -3.594,4.52 -3.348,3.341 -3.445,3.462 -3.445,4.31 0,0.838 -0.102,0.972 -2.628,3.458 -2.599,2.558 -2.627,2.596 -2.627,3.542 0,0.62 -0.118,1.052 -0.334,1.228 -0.184,0.149 -0.989,0.933 -1.79,1.742 -0.8,0.809 -1.612,1.613 -1.804,1.787 -0.192,0.173 -0.545,0.53 -0.785,0.794 -0.24,0.263 -0.794,0.834 -1.23,1.27 -0.655,0.653 -0.816,0.986 -0.926,1.912 -0.114,0.965 -0.223,1.174 -0.785,1.506 -0.359,0.211 -0.811,0.653 -1.005,0.982 -0.194,0.328 -0.585,0.721 -0.869,0.873 -0.283,0.152 -0.637,0.504 -0.786,0.782 -0.149,0.278 -0.571,0.735 -0.938,1.015 -0.556,0.424 -0.689,0.695 -0.798,1.625 -0.16,1.376 -0.654,1.852 -1.919,1.852 -1.135,0 -1.586,0.467 -1.586,1.643 0,1.336 -5.603,6.975 -6.93,6.975 h -0.847 v 1.261 1.262 h -0.818 c -0.887,0 -1.073,0.221 -1.073,1.278 0,0.575 -0.052,0.613 -0.841,0.613 h -0.841 v 0.862 0.862 l -0.893,-0.073 -0.894,-0.074 0.068,1.734 0.068,1.734 -0.593,0.003 c -0.875,0.005 -1.157,0.273 -1.181,1.125 -0.021,0.756 -0.03,0.764 -0.926,0.764 h -0.904 v 0.903 c 0,0.776 -0.118,1.018 -0.835,1.718 -0.791,0.773 -0.814,0.83 -0.437,1.094 0.864,0.605 0.719,2.194 -0.227,2.494 -1.114,0.354 -2.705,2.305 -2.705,3.318 0,0.876 -0.077,1.018 -0.946,1.729 l -0.946,0.775 v 1.967 c 0,1.919 -0.014,1.976 -0.578,2.325 -0.904,0.56 -1.103,0.919 -1.103,1.986 0,0.908 -0.073,1.051 -0.841,1.659 l -0.841,0.666 v 1.874 c 0,1.577 -0.063,1.928 -0.396,2.213 -1.576,1.349 -1.495,1.176 -1.495,3.19 v 1.866 l -0.841,0.676 c -0.773,0.621 -0.841,0.758 -0.841,1.699 0,0.943 -0.066,1.076 -0.841,1.689 l -0.841,0.666 v 1.961 1.962 l -0.84,0.666 -0.841,0.666 v 1.836 1.836 l -0.946,0.85 -0.946,0.85 v 1.885 1.886 l -0.841,0.675 c -0.773,0.622 -0.84,0.758 -0.84,1.699 0,0.943 -0.067,1.076 -0.841,1.69 l -0.841,0.666 v 1.898 1.898 l -0.841,0.769 -0.84,0.769 v 1.796 1.797 l -0.946,0.85 c -0.887,0.797 -0.946,0.917 -0.946,1.925 0,0.945 -0.07,1.118 -0.578,1.432 -1,0.62 -1.104,0.885 -1.104,2.828 v 1.834 l -0.841,0.665 -0.84,0.666 v 1.874 c 0,2.001 0.08,1.815 -1.345,3.105 -0.51,0.462 -0.547,0.619 -0.547,2.347 v 1.852 l -0.841,0.666 c -0.776,0.615 -0.841,0.745 -0.841,1.699 0,0.771 -0.107,1.127 -0.42,1.402 -0.231,0.202 -0.61,0.533 -0.841,0.735 -0.361,0.316 -0.42,0.631 -0.42,2.242 v 1.874 l -0.841,0.666 -0.841,0.666 v 1.884 c 0,2.033 0.082,1.857 -1.495,3.207 -0.287,0.245 -0.397,0.619 -0.397,1.355 0,0.932 -0.069,1.071 -0.84,1.691 -0.77,0.619 -0.841,0.76 -0.841,1.684 0,1.684 -0.062,1.704 -5.128,1.704 -5.117,0 -5.172,-0.015 -5.172,-1.507 0,-1.005 -0.059,-1.126 -0.945,-1.922 -0.869,-0.78 -0.946,-0.932 -0.946,-1.846 0,-0.91 -0.072,-1.052 -0.841,-1.661 l -0.841,-0.666 v -1.874 c 0,-1.975 -0.004,-1.983 -1.229,-2.976 -0.401,-0.324 -0.452,-0.576 -0.452,-2.221 v -1.856 l -0.946,-0.85 c -0.885,-0.795 -0.946,-0.919 -0.946,-1.913 0,-0.981 -0.055,-1.096 -0.715,-1.504 -0.839,-0.518 -0.967,-0.785 -0.967,-2.015 0,-1.102 -0.516,-1.571 -1.728,-1.571 -0.654,0 -0.794,0.074 -0.794,0.42 0,0.336 -0.14,0.421 -0.694,0.421 -0.877,0 -1.198,0.321 -1.198,1.198 0,0.669 -0.03,0.693 -0.841,0.693 h -0.84 v 1.682 1.682 h -0.841 -0.841 v 0.945 0.946 h -0.841 c -0.838,0 -0.841,0.002 -0.841,0.829 0,0.825 -0.004,0.829 -0.893,0.893 l -0.893,0.065 -0.061,1.617 -0.062,1.617 -0.779,0.064 c -0.755,0.063 -0.782,0.093 -0.844,0.958 -0.065,0.889 -0.069,0.894 -0.894,0.894 -0.826,0 -0.828,0.002 -0.828,0.84 v 0.841 h -0.841 c -0.839,0 -0.841,0.002 -0.841,0.829 0,0.825 -0.004,0.829 -0.893,0.893 l -0.894,0.065 -0.061,1.734 -0.061,1.734 h -0.832 c -0.831,0 -0.832,0.002 -0.832,0.841 v 0.841 h -0.841 -0.841 v 0.84 c 0,0.837 -0.004,0.841 -0.818,0.841 -0.99,0 -1.074,0.166 -1.074,2.119 v 1.455 h -0.84 -0.841 v 0.84 0.841 h -0.841 c -0.839,0 -0.841,0.002 -0.841,0.828 0,0.805 -0.021,0.83 -0.788,0.893 l -0.788,0.066 -0.061,1.722 -0.061,1.723 -0.885,0.064 c -0.855,0.062 -0.887,0.09 -0.949,0.84 -0.061,0.73 -0.112,0.78 -0.841,0.841 -0.729,0.061 -0.78,0.112 -0.841,0.836 -0.06,0.72 -0.12,0.782 -0.893,0.912 -0.8,0.135 -0.829,0.169 -0.829,0.962 0,0.82 -0.003,0.823 -0.841,0.823 h -0.841 v 1.669 1.67 l -0.893,0.064 c -0.889,0.065 -0.894,0.069 -0.958,0.958 -0.064,0.889 -0.069,0.894 -0.893,0.894 -0.827,0 -0.829,0.002 -0.829,0.84 v 0.841 h -0.841 -0.84 v 1.682 1.681 h -0.694 c -0.889,0 -1.197,0.321 -1.201,1.251 -0.006,1.51 -0.573,2.543 -2.324,4.241 -1.585,1.537 -1.667,1.662 -1.667,2.541 0,0.997 -0.21,1.366 -1.088,1.908 -0.309,0.191 -0.623,0.54 -0.698,0.776 -0.074,0.235 -0.417,0.574 -0.76,0.751 -0.344,0.178 -0.801,0.612 -1.015,0.965 -0.215,0.353 -0.675,0.815 -1.023,1.026 -0.348,0.212 -0.693,0.574 -0.766,0.805 -0.074,0.231 -0.46,0.612 -0.86,0.848 -0.661,0.39 -0.726,0.516 -0.726,1.395 0,1.183 -0.248,1.68 -1.043,2.091 -0.335,0.173 -0.671,0.509 -0.746,0.746 -0.075,0.237 -0.507,0.664 -0.961,0.951 -0.453,0.286 -0.824,0.664 -0.824,0.84 0,0.175 -0.334,0.517 -0.743,0.758 -0.409,0.241 -0.883,0.709 -1.055,1.04 -0.171,0.331 -0.586,0.744 -0.923,0.919 -0.337,0.174 -0.67,0.498 -0.74,0.72 -0.071,0.222 -0.456,0.654 -0.856,0.959 -0.639,0.488 -0.727,0.669 -0.727,1.499 0,0.943 -0.01,0.955 -3.469,4.391 -2.483,2.468 -3.468,3.584 -3.469,3.932 -0.002,1 -0.419,1.994 -0.934,2.229 -0.283,0.129 -0.682,0.499 -0.888,0.822 -0.205,0.323 -0.493,0.662 -0.639,0.754 -1.302,0.818 -2.793,2.694 -2.793,3.514 0,1.091 -0.264,1.588 -1.066,2.003 -0.348,0.18 -0.742,0.566 -0.875,0.858 -0.133,0.292 -0.512,0.671 -0.841,0.841 -0.329,0.17 -0.708,0.549 -0.841,0.841 -0.133,0.292 -0.506,0.667 -0.828,0.834 -0.322,0.167 -0.731,0.584 -0.909,0.927 -0.177,0.343 -0.604,0.769 -0.949,0.947 -0.57,0.295 -0.627,0.421 -0.627,1.386 0,0.917 -0.089,1.144 -0.648,1.66 -0.356,0.328 -0.742,0.692 -0.857,0.807 -0.116,0.116 -0.494,0.494 -0.841,0.841 -0.347,0.347 -0.741,0.736 -0.876,0.865 -2.762,2.631 -3.66,3.747 -3.808,4.734 -0.144,0.962 -0.317,1.188 -2.882,3.772 -1.502,1.512 -2.881,2.915 -3.067,3.117 -0.221,0.242 -0.649,0.368 -1.246,0.368 H 75.67 v 1.051 c 0,0.971 -0.038,1.051 -0.508,1.051 -0.943,0 -1.174,0.208 -1.174,1.061 0,0.798 -0.008,0.807 -0.893,0.871 -0.867,0.063 -0.895,0.088 -0.958,0.853 -0.064,0.766 -0.089,0.788 -0.894,0.788 h -0.828 v 1.787 1.786 h -0.841 -0.84 v 0.841 0.841 h -0.841 -0.841 v 1.774 1.775 l -0.893,0.065 c -0.867,0.062 -0.896,0.087 -0.959,0.852 -0.063,0.767 -0.088,0.789 -0.893,0.789 h -0.828 v 1.681 1.682 h -0.841 -0.841 v 0.935 c 0,0.564 0.113,1.002 0.285,1.104 1.501,0.886 0.785,2.585 -1.09,2.585 -0.826,0 -1.087,0.076 -1.087,0.315 0,0.228 -0.233,0.316 -0.84,0.316 h -0.841 v 1.786 1.787 h -0.841 -0.841 v 1.682 1.681 h -0.84 -0.841 v 1.775 1.774 l -0.894,0.065 c -0.867,0.063 -0.895,0.088 -0.958,0.853 -0.064,0.766 -0.088,0.788 -0.893,0.788 h -0.829 v 1.787 1.786 h -0.84 -0.841 v 0.841 0.841 h -0.841 -0.841 v 1.776 c 0,1.271 0.081,1.824 0.285,1.944 1.422,0.84 0.729,2.586 -1.027,2.586 -0.653,0 -0.99,0.099 -1.073,0.315 -0.079,0.205 -0.406,0.315 -0.94,0.315 h -0.818 v 1.682 c 0,1.638 -0.013,1.681 -0.508,1.681 -0.946,0 -1.174,0.208 -1.174,1.074 0,0.811 -0.007,0.818 -0.818,0.818 -0.552,0 -0.86,0.108 -0.946,0.333 -0.267,0.696 -0.113,2.751 0.283,3.795 0.507,1.332 0.212,1.758 -1.215,1.758 -0.795,0 -0.877,0.048 -0.877,0.525 0,0.473 -0.084,0.525 -0.841,0.525 h -0.84 v 1.669 1.669 l -0.789,0.065 c -0.765,0.064 -0.79,0.092 -0.852,0.959 l -0.065,0.893 h -0.934 -0.934 v 1.669 1.669 l -0.788,0.065 -0.788,0.066 -0.061,1.734 -0.061,1.734 H 31.31 c -0.83,0 -0.832,0.001 -0.832,0.841 v 0.84 h -0.841 -0.84 v 1.787 1.787 h -0.951 -0.952 l 0.058,3.415 0.058,3.416 0.893,0.065 c 0.889,0.064 0.894,0.068 0.894,0.893 v 0.829 h 2.522 2.522 v -0.829 c 0,-0.825 0.005,-0.829 0.894,-0.893 0.889,-0.065 0.893,-0.069 0.958,-0.958 0.064,-0.889 0.068,-0.894 0.893,-0.894 0.827,0 0.829,-0.002 0.829,-0.84 v -0.841 h 0.84 0.841 v -0.841 -0.841 h 0.841 c 0.839,0 0.841,-10e-4 0.841,-0.832 v -0.832 l 1.734,-0.061 1.734,-0.061 0.065,-0.894 c 0.064,-0.889 0.068,-0.893 0.893,-0.893 0.827,0 0.829,-0.002 0.829,-0.841 0,-0.838 0.003,-0.841 0.822,-0.841 0.793,0 0.827,-0.029 0.962,-0.829 0.131,-0.773 0.193,-0.833 0.912,-0.893 0.746,-0.062 0.774,-0.094 0.836,-0.958 0.065,-0.889 0.069,-0.893 0.894,-0.893 0.826,0 0.828,-0.002 0.828,-0.841 v -0.841 h 0.841 c 0.839,0 0.841,-0.002 0.841,-0.828 0,-0.825 0.004,-0.829 0.893,-0.894 0.866,-0.062 0.896,-0.089 0.958,-0.844 l 0.065,-0.779 1.617,-0.062 1.617,-0.061 0.064,-0.893 c 0.065,-0.889 0.069,-0.893 0.894,-0.893 0.826,0 0.828,-0.002 0.828,-0.841 v -0.841 h 0.946 0.946 v -0.841 -0.841 h 0.841 0.841 v -0.84 c 0,-0.749 0.055,-0.841 0.508,-0.841 0.946,0 1.173,-0.208 1.173,-1.074 0,-0.811 0.007,-0.818 0.823,-0.818 0.795,0 0.826,-0.027 0.964,-0.841 l 0.142,-0.84 h 1.663 1.663 v -0.841 -0.841 h 0.841 0.841 v -0.934 -0.933 l 0.893,-0.065 c 0.867,-0.063 0.895,-0.088 0.959,-0.853 0.063,-0.766 0.088,-0.788 0.893,-0.788 0.819,0 0.828,-0.009 0.828,-0.804 0,-1.703 0.569,-2.758 2.516,-4.662 1.006,-0.983 1.868,-1.905 1.916,-2.048 0.048,-0.144 0.603,-0.45 1.234,-0.68 0.63,-0.231 1.219,-0.55 1.308,-0.709 0.09,-0.16 0.472,-0.418 0.851,-0.573 1.369,-0.561 15.296,-14.799 15.296,-15.637 0,-0.992 0.33,-1.627 1.062,-2.048 0.341,-0.195 0.72,-0.574 0.841,-0.84 0.122,-0.267 0.5,-0.645 0.841,-0.841 0.341,-0.196 0.722,-0.581 0.848,-0.856 0.125,-0.276 0.5,-0.662 0.833,-0.858 0.333,-0.197 0.759,-0.617 0.946,-0.935 0.188,-0.317 0.617,-0.735 0.953,-0.929 0.537,-0.308 0.613,-0.47 0.613,-1.32 0,-1.194 0.247,-1.683 1.066,-2.106 0.349,-0.18 0.742,-0.567 0.876,-0.859 0.133,-0.292 0.511,-0.671 0.84,-0.841 0.33,-0.17 0.708,-0.548 0.841,-0.841 0.133,-0.292 0.515,-0.672 0.848,-0.844 0.346,-0.179 0.744,-0.647 0.925,-1.088 0.176,-0.426 0.504,-0.975 0.73,-1.22 0.226,-0.245 0.576,-0.907 0.778,-1.471 0.244,-0.686 0.584,-1.165 1.023,-1.446 0.362,-0.232 0.759,-0.636 0.883,-0.9 0.123,-0.263 0.542,-0.666 0.929,-0.894 0.387,-0.229 0.81,-0.647 0.938,-0.93 0.129,-0.283 0.516,-0.66 0.859,-0.837 0.344,-0.178 0.686,-0.514 0.759,-0.746 0.074,-0.233 0.446,-0.661 0.827,-0.951 0.573,-0.437 0.714,-0.711 0.818,-1.586 0.132,-1.115 0.02,-0.985 5.747,-6.717 0.134,-0.134 0.489,-0.468 0.788,-0.742 0.433,-0.395 0.544,-0.693 0.544,-1.452 0,-1.284 0.51,-1.797 1.787,-1.797 0.701,0 0.946,-0.081 0.946,-0.315 0,-0.233 0.245,-0.315 0.946,-0.315 h 0.946 v -0.841 -0.841 h 0.84 0.841 v -0.84 -0.841 h 0.841 0.841 v -1.787 -1.787 h 0.84 c 0.839,0 0.841,-0.002 0.841,-0.828 0,-0.825 0.005,-0.829 0.894,-0.894 0.864,-0.062 0.895,-0.089 0.957,-0.84 0.061,-0.73 0.112,-0.781 0.841,-0.841 l 0.776,-0.065 v -1.892 -1.891 l 0.841,-0.013 c 0.789,-0.011 0.845,-0.054 0.907,-0.683 0.061,-0.626 0.119,-0.671 0.871,-0.671 0.873,0 1.06,-0.225 1.06,-1.278 0,-0.575 0.052,-0.613 0.841,-0.613 h 0.84 v -0.841 -0.841 h 0.841 c 0.994,0 1.264,-1.233 0.434,-1.985 -1.307,-1.182 -0.681,-2.639 1.133,-2.639 0.709,0 0.955,-0.081 0.955,-0.315 0,-0.256 0.339,-0.316 1.787,-0.316 h 1.787 v -0.84 -0.841 h 0.841 0.84 v -0.841 -0.841 h 0.841 0.841 v -1.786 -1.787 h 0.946 0.946 v -0.841 -0.841 h 0.84 0.841 v -0.84 -0.841 h 0.841 0.841 v -1.775 -1.774 l 0.893,-0.065 c 0.867,-0.063 0.895,-0.088 0.959,-0.853 0.063,-0.766 0.088,-0.788 0.893,-0.788 0.824,0 0.828,-0.004 0.828,-0.828 0,-0.805 0.022,-0.83 0.788,-0.894 0.765,-0.063 0.79,-0.091 0.853,-0.958 0.064,-0.889 0.069,-0.893 0.893,-0.893 h 0.829 v -1.67 -1.669 l 0.893,-0.065 c 0.864,-0.062 0.896,-0.09 0.958,-0.836 0.06,-0.72 0.12,-0.782 0.893,-0.912 0.801,-0.135 0.829,-0.169 0.829,-0.963 0,-0.819 0.004,-0.822 0.841,-0.822 h 0.841 v -0.841 c 0,-0.837 0.003,-0.84 0.822,-0.84 0.794,0 0.828,-0.029 0.963,-0.829 0.13,-0.773 0.192,-0.834 0.911,-0.894 l 0.772,-0.064 0.061,-1.734 0.061,-1.734 h 0.833 c 0.83,0 0.832,-0.002 0.832,-0.841 v -0.841 h 0.841 0.84 v -0.841 c 0,-0.788 0.038,-0.84 0.614,-0.84 1.057,0 1.278,-0.186 1.278,-1.074 0,-0.814 0.004,-0.818 0.841,-0.818 h 0.841 v -0.841 -0.841 h 0.841 0.84 v -1.786 -1.787 h 0.841 0.841 v -0.841 -0.841 h 0.946 0.946 v -0.84 -0.841 h 0.84 c 0.839,0 0.841,-0.002 0.841,-0.828 0,-0.805 0.022,-0.83 0.788,-0.893 l 0.789,-0.066 0.061,-1.734 0.061,-1.734 h 0.814 c 0.783,0 0.818,-0.031 0.953,-0.829 0.131,-0.773 0.193,-0.833 0.912,-0.893 0.727,-0.061 0.776,-0.111 0.837,-0.853 0.056,-0.669 0.14,-0.788 0.561,-0.788 0.933,0 1.161,-0.211 1.161,-1.074 0,-0.814 0.003,-0.818 0.84,-0.818 h 0.841 v -1.669 -1.67 l 0.893,-0.064 c 0.889,-0.065 0.894,-0.069 0.958,-0.958 0.065,-0.889 0.069,-0.894 0.894,-0.894 0.826,0 0.828,-0.002 0.828,-0.84 v -0.841 h 0.841 0.841 v -0.841 -0.841 h 0.841 0.841 v -1.786 -1.787 h 0.945 0.946 v -0.841 -0.841 h 0.841 0.841 v -0.84 -0.841 h 0.841 c 0.836,0 0.84,-0.004 0.84,-0.818 0,-0.778 0.038,-0.824 0.788,-0.965 1.012,-0.19 1.097,-0.347 1.101,-2.053 l 0.003,-1.419 h 0.841 c 0.839,0 0.841,-0.002 0.841,-0.828 0,-0.805 0.022,-0.83 0.788,-0.893 l 0.788,-0.066 0.061,-1.734 0.061,-1.734 h 0.833 c 0.828,0 0.832,-0.003 0.832,-0.829 0,-0.824 0.004,-0.829 0.893,-0.893 l 0.893,-0.065 0.062,-1.734 0.061,-1.734 h 0.832 c 0.831,0 0.832,-10e-4 0.832,-0.841 v -0.84 h 0.841 0.841 v -1.787 -1.787 h 0.84 0.841 v -0.84 -0.841 h 0.946 0.946 v -0.841 -0.841 h 0.841 0.841 v -0.841 c 0,-0.53 0.096,-0.841 0.262,-0.844 0.199,-0.002 0.195,-0.046 -0.015,-0.179 -0.298,-0.189 -0.695,-1.612 -0.503,-1.804 0.063,-0.063 0.525,-0.115 1.026,-0.115 0.901,0 0.911,-0.008 0.911,-0.736 0,-0.715 0.023,-0.736 0.818,-0.736 0.863,0 1.074,-0.228 1.074,-1.16 0,-0.421 0.119,-0.506 0.788,-0.561 0.745,-0.062 0.792,-0.108 0.854,-0.853 0.057,-0.699 0.129,-0.789 0.63,-0.792 1.034,-0.006 1.136,-0.209 1.058,-2.123 l -0.072,-1.762 0.893,0.018 c 0.873,0.018 0.894,0.002 0.894,-0.671 0,-0.661 0.037,-0.692 0.893,-0.754 0.887,-0.064 0.894,-0.071 1.019,-1.011 0.21,-1.566 0.778,-2.523 2.522,-4.249 1.563,-1.546 1.661,-1.697 1.661,-2.548 0,-0.793 0.11,-1.006 0.893,-1.736 0.492,-0.458 1.036,-0.987 1.209,-1.175 0.575,-0.626 1.635,-1.708 2.628,-2.683 0.346,-0.341 0.772,-0.764 0.945,-0.941 0.733,-0.749 1.414,-1.44 2.144,-2.175 0.63,-0.635 0.804,-0.995 0.923,-1.911 0.128,-0.985 0.235,-1.181 0.843,-1.539 0.383,-0.226 0.753,-0.591 0.823,-0.811 0.07,-0.219 0.429,-0.61 0.797,-0.867 0.369,-0.257 0.755,-0.605 0.857,-0.773 0.102,-0.167 0.931,-1.041 1.841,-1.94 1.491,-1.473 1.669,-1.736 1.793,-2.637 0.131,-0.956 0.29,-1.154 3.466,-4.323 l 3.329,-3.321 v -1.125 c 0,-1.095 0.39,-1.819 0.979,-1.819 0.116,0 1.177,-0.97 2.358,-2.155 3.786,-3.8 3.748,-3.754 3.871,-4.745 0.086,-0.689 0.308,-1.105 0.919,-1.717 0.443,-0.445 0.961,-0.969 1.15,-1.165 0.365,-0.377 1.13,-1.153 1.914,-1.94 0.261,-0.263 0.617,-0.625 0.79,-0.806 0.173,-0.181 0.7,-0.723 1.17,-1.205 0.469,-0.482 1.028,-1.16 1.241,-1.506 0.213,-0.347 0.513,-0.706 0.667,-0.797 0.153,-0.092 0.425,-0.669 0.603,-1.284 0.246,-0.844 0.529,-1.281 1.16,-1.788 0.749,-0.602 0.834,-0.767 0.834,-1.617 0,-1.406 3.668,-5.129 5.054,-5.129 0.684,0 0.894,-0.088 0.977,-0.406 0.073,-0.277 0.364,-0.449 0.926,-0.544 l 0.82,-0.138 v -1.663 -1.663 h 0.841 0.841 v -0.841 -0.841 h 0.841 0.841 v -0.946 -0.946 h 0.945 0.946 v -0.84 -0.841 h 0.841 0.841 v -1.669 -1.669 l 0.788,-0.065 c 0.765,-0.064 0.79,-0.092 0.853,-0.959 0.064,-0.885 0.072,-0.893 0.875,-0.893 0.781,0 0.815,-0.03 0.952,-0.841 0.138,-0.813 0.169,-0.841 0.964,-0.841 0.82,0 0.823,-0.003 0.823,-0.84 v -0.841 h 0.841 0.84 v -1.787 -1.787 h 0.841 c 0.839,0 0.841,-0.002 0.841,-0.828 0,-0.825 0.004,-0.829 0.893,-0.894 0.865,-0.062 0.896,-0.089 0.958,-0.84 0.061,-0.73 0.111,-0.781 0.841,-0.841 0.751,-0.063 0.778,-0.094 0.841,-0.958 0.064,-0.889 0.068,-0.893 0.893,-0.893 h 0.829 v -1.682 -1.681 h 0.841 0.84 v -0.841 c 0,-0.789 0.038,-0.841 0.614,-0.841 1.056,0 1.278,-0.186 1.278,-1.073 0,-0.815 0.004,-0.819 0.841,-0.819 h 0.841 l -0.005,-0.893 c -0.003,-0.491 -0.086,-1.241 -0.185,-1.665 -0.223,-0.961 0.009,-1.225 1.072,-1.225 0.773,0 0.799,-0.024 0.799,-0.736 0,-0.715 0.023,-0.736 0.822,-0.736 0.796,0 0.827,-0.027 0.965,-0.84 0.137,-0.814 0.169,-0.841 0.964,-0.841 0.819,0 0.822,-0.003 0.822,-0.841 v -0.841 h 0.841 c 0.839,0 0.841,-0.002 0.841,-0.828 0,-0.805 0.022,-0.83 0.788,-0.893 l 0.788,-0.065 0.061,-1.723 0.061,-1.722 0.885,-0.064 c 0.855,-0.063 0.887,-0.091 0.95,-0.841 0.06,-0.729 0.111,-0.78 0.841,-0.841 0.728,-0.06 0.78,-0.112 0.84,-0.836 0.06,-0.72 0.12,-0.781 0.893,-0.912 0.8,-0.135 0.829,-0.169 0.829,-0.962 0,-0.819 0.004,-0.822 0.841,-0.822 h 0.841 v -1.67 -1.669 l 0.893,-0.065 c 0.889,-0.064 0.894,-0.069 0.958,-0.958 0.065,-0.889 0.069,-0.893 0.894,-0.893 0.826,0 0.828,-0.002 0.828,-0.841 v -0.841 h 0.841 0.841 v -0.841 c 0,-0.837 0.004,-0.84 0.818,-0.84 0.99,0 1.074,-0.166 1.074,-2.12 v -1.454 h 0.84 0.841 v -0.841 -0.84 h 0.841 0.841 v -0.841 -0.841 h 0.84 0.841 v -1.774 -1.775 l 0.894,-0.065 c 0.867,-0.062 0.895,-0.087 0.958,-0.852 0.064,-0.767 0.088,-0.789 0.893,-0.789 0.824,0 0.829,-0.004 0.829,-0.828 0,-0.805 0.021,-0.83 0.788,-0.893 0.765,-0.063 0.79,-0.092 0.853,-0.959 0.064,-0.889 0.068,-0.893 0.893,-0.893 h 0.829 v -0.877 c 0,-0.482 -0.135,-1.026 -0.299,-1.208 -1.013,-1.125 -0.37,-2.329 1.245,-2.329 0.7,0 0.945,-0.082 0.945,-0.315 0,-0.194 0.197,-0.316 0.509,-0.316 0.946,0 1.173,-0.208 1.173,-1.073 0,-0.815 0.004,-0.818 0.841,-0.818 h 0.841 v -0.841 c 0,-0.837 0.003,-0.841 0.818,-0.841 0.862,0 1.073,-0.228 1.073,-1.161 0,-0.421 0.119,-0.505 0.789,-0.56 l 0.788,-0.066 0.061,-1.734 0.061,-1.734 h 0.832 c 0.831,0 0.832,-0.001 0.832,-0.841 v -0.84 h 0.841 c 0.839,0 0.841,-0.002 0.841,-0.829 0,-0.825 0.004,-0.829 0.893,-0.893 l 0.894,-0.065 0.061,-1.734 0.061,-1.734 h 0.832 c 0.831,0 0.832,-0.002 0.832,-0.841 v -0.841 h 0.841 c 0.838,0 0.841,-0.003 0.841,-0.822 0,-0.796 0.027,-0.827 0.841,-0.964 0.813,-0.138 0.84,-0.169 0.84,-0.965 v -0.822 h 0.946 0.946 v -1.669 -1.669 l 0.788,-0.065 c 0.765,-0.063 0.79,-0.092 0.853,-0.959 0.065,-0.889 0.069,-0.893 0.894,-0.893 0.826,0 0.828,-0.002 0.828,-0.841 0,-0.837 0.004,-0.841 0.819,-0.841 0.862,0 1.073,-0.228 1.073,-1.16 0,-0.421 0.119,-0.506 0.788,-0.561 l 0.788,-0.065 0.061,-1.734 0.062,-1.734 h 0.832 c 0.831,0 0.832,-0.002 0.832,-0.841 v -0.841 h 0.841 0.841 V 43.51 42.669 l 0.893,-0.02 c 2.61,-0.059 2.648,-0.047 2.711,0.883 0.053,0.798 1.284,1.175 1.971,0.604 0.411,-0.341 1.602,-0.165 1.813,0.268 0.098,0.202 0.259,0.533 0.358,0.735 0.098,0.203 0.375,0.397 0.615,0.433 1.339,0.2 0.967,2.352 -0.407,2.352 h -0.808 v 1.67 1.669 l -0.893,0.065 c -0.865,0.062 -0.895,0.09 -0.958,0.841 -0.061,0.729 -0.111,0.78 -0.841,0.841 -0.751,0.062 -0.778,0.093 -0.841,0.957 -0.064,0.889 -0.068,0.894 -0.893,0.894 -0.825,0 -0.829,0.004 -0.829,0.828 0,0.825 -0.004,0.829 -0.893,0.894 l -0.893,0.064 -0.061,1.735 -0.061,1.734 h -0.833 c -0.83,0 -0.832,10e-4 -0.832,0.84 v 0.841 h -0.841 -0.84 v 0.841 0.841 h -0.861 -0.86 l 0.092,1.103 c 0.05,0.607 0.219,1.404 0.374,1.77 0.405,0.953 0.038,1.331 -1.294,1.331 -0.953,0 -1.025,0.036 -1.025,0.525 0,0.473 -0.084,0.526 -0.841,0.526 h -0.84 v 0.84 0.841 h -0.841 -0.841 v 0.841 c 0,0.776 -0.044,0.841 -0.578,0.844 -0.994,0.005 -1.156,0.258 -1.266,1.972 l -0.103,1.598 h -0.813 c -0.807,0 -0.813,0.007 -0.813,0.828 0,0.805 -0.022,0.83 -0.788,0.893 -0.766,0.064 -0.791,0.092 -0.853,0.959 -0.065,0.889 -0.069,0.893 -0.894,0.893 h -0.828 v 1.67 1.669 l -0.894,0.065 c -0.864,0.062 -0.895,0.09 -0.957,0.841 -0.061,0.729 -0.112,0.78 -0.841,0.841 -0.751,0.062 -0.779,0.093 -0.841,0.957 -0.064,0.889 -0.069,0.894 -0.893,0.894 h -0.829 v 1.681 1.682 h -0.841 c -0.837,0 -0.841,0.004 -0.841,0.817 0,0.807 -0.011,0.818 -0.946,0.958 -0.937,0.141 -0.945,0.15 -0.945,0.97 0,0.826 -0.003,0.828 -0.841,0.828 h -0.841 v 1.682 1.681 h -0.841 -0.841 v 0.946 0.946 h -0.822 c -0.795,0 -0.827,0.027 -0.964,0.841 -0.138,0.813 -0.169,0.841 -0.965,0.841 -0.819,0 -0.822,0.003 -0.822,0.84 v 0.841 h -0.841 -0.84 v 1.787 1.786 h -0.841 c -0.839,0 -0.841,0.002 -0.841,0.829 0,0.825 -0.004,0.829 -0.893,0.893 -0.865,0.063 -0.896,0.09 -0.958,0.841 -0.061,0.73 -0.112,0.78 -0.841,0.841 l -0.776,0.065 -0.061,1.734 -0.061,1.734 h -0.833 c -0.83,0 -0.832,0.001 -0.832,0.841 v 0.84 h -0.841 c -0.838,0 -0.84,0.002 -0.84,0.829 0,0.825 -0.005,0.829 -0.894,0.893 -0.889,0.065 -0.893,0.069 -0.958,0.958 -0.038,0.536 0.026,0.894 0.161,0.894 0.26,0 1.058,1.234 1.059,1.638 0.002,0.64 -1.009,1.304 -1.986,1.304 -0.526,0 -0.956,0.095 -0.956,0.211 0,0.115 -0.378,0.21 -0.84,0.21 h -0.841 v 0.841 c 0,0.776 -0.045,0.841 -0.578,0.844 -1.159,0.006 -1.722,1.319 -0.93,2.168 1.129,1.21 0.445,2.576 -1.211,2.418 -0.699,-0.067 -0.855,-0.016 -0.855,0.279 0,0.265 -0.209,0.378 -0.788,0.426 -0.765,0.063 -0.79,0.092 -0.853,0.959 -0.064,0.889 -0.068,0.893 -0.893,0.893 -0.977,0 -1.129,0.775 -0.484,2.466 0.326,0.851 0.324,0.927 -0.032,1.321 -0.499,0.551 -1.92,0.585 -2.06,0.049 -0.052,-0.202 -0.107,-0.019 -0.12,0.408 -0.023,0.739 -0.061,0.778 -0.813,0.84 -0.765,0.064 -0.79,0.092 -0.853,0.959 -0.064,0.889 -0.068,0.893 -0.893,0.893 -0.827,0 -0.829,0.002 -0.829,0.841 v 0.841 h -0.84 -0.841 v 1.658 1.657 l -0.946,0.142 c -0.937,0.141 -0.946,0.15 -0.946,0.97 0,0.826 -0.002,0.828 -0.841,0.828 h -0.84 v 0.841 0.84 h -0.841 -0.841 v 1.787 1.787 h -0.818 c -0.866,0 -1.074,0.227 -1.074,1.173 0,0.453 -0.091,0.508 -0.84,0.508 h -0.841 v 0.841 0.841 h -0.841 c -0.839,0 -0.841,0.002 -0.841,0.828 0,0.805 -0.022,0.83 -0.788,0.893 l -0.788,0.065 -0.061,1.723 -0.061,1.722 -0.885,0.064 c -0.855,0.063 -0.887,0.091 -0.95,0.841 -0.06,0.729 -0.111,0.78 -0.84,0.841 -0.751,0.062 -0.779,0.093 -0.841,0.958 -0.065,0.889 -0.069,0.893 -0.894,0.893 -0.826,0 -0.828,0.002 -0.828,0.841 v 0.84 h -0.841 -0.841 v 1.67 1.669 l -0.893,0.065 c -0.889,0.064 -0.894,0.069 -0.958,0.958 -0.064,0.889 -0.069,0.893 -0.893,0.893 -0.827,0 -0.829,0.002 -0.829,0.841 v 0.841 h -0.841 -0.841 v 2.627 2.628 h 1.669 1.669 l 0.065,0.788 0.066,0.788 1.734,0.061 1.734,0.061 v -1.795 -1.795 h 0.841 0.84 v -0.841 -0.841 h 0.841 c 0.839,0 0.841,-0.002 0.841,-0.828 0,-0.825 0.004,-0.829 0.893,-0.894 l 0.894,-0.064 0.061,-1.734 0.061,-1.734 h 0.832 c 0.831,0 0.832,-0.002 0.832,-0.841 v -0.841 h 0.841 0.841 v -0.841 -0.841 h 0.841 0.84 v -1.786 -1.787 h 0.946 0.946 v -0.841 -0.84 h 0.841 0.841 v -0.841 -0.841 h 0.872 0.872 l -0.134,-1.892 c -0.074,-1.04 -0.065,-1.9 0.021,-1.91 1.364,-0.162 1.623,-0.082 1.757,0.544 0.098,0.457 0.142,0.273 0.16,-0.67 l 0.025,-1.301 0.788,-0.066 c 0.743,-0.061 0.792,-0.109 0.853,-0.841 0.06,-0.729 0.111,-0.78 0.841,-0.841 0.751,-0.062 0.778,-0.093 0.841,-0.958 0.064,-0.889 0.068,-0.893 0.893,-0.893 h 0.829 v -1.67 -1.669 l 0.893,-0.065 c 0.889,-0.064 0.894,-0.069 0.958,-0.958 0.064,-0.889 0.069,-0.893 0.893,-0.893 0.827,0 0.829,-0.002 0.829,-0.841 v -0.841 h 0.841 0.84 v -0.84 -0.841 h 0.841 0.841 v -1.787 -1.786 h 0.946 0.946 v -0.841 -0.841 h 0.841 0.84 v -0.841 -0.84 h 0.841 0.841 v -1.787 -1.787 h 0.818 c 0.866,0 1.074,-0.227 1.074,-1.173 0,-0.453 0.091,-0.508 0.84,-0.508 h 0.841 v -0.841 -0.841 h 0.87 0.869 l -0.148,-1.419 c -0.281,-2.691 -0.351,-2.461 0.774,-2.534 0.946,-0.06 0.998,-0.096 0.998,-0.671 0,-0.563 0.064,-0.611 0.894,-0.671 0.864,-0.063 0.895,-0.09 0.957,-0.841 0.061,-0.729 0.112,-0.78 0.841,-0.841 l 0.776,-0.064 0.062,-1.735 0.061,-1.734 h 0.832 c 0.831,0 0.832,-10e-4 0.832,-0.84 v -0.841 h 0.841 c 0.837,0 0.841,-0.004 0.841,-0.817 0,-0.807 0.011,-0.819 0.946,-0.959 l 0.945,-0.142 v -1.668 -1.669 h 0.841 0.841 v -0.841 -0.841 h 0.841 0.841 v -0.945 -0.946 h 0.818 c 0.865,0 1.073,-0.228 1.073,-1.174 0,-0.452 0.092,-0.508 0.841,-0.508 h 0.841 v -1.669 -1.669 l 0.788,-0.065 c 0.765,-0.063 0.79,-0.091 0.853,-0.958 0.064,-0.889 0.069,-0.894 0.893,-0.894 0.825,0 0.829,-0.004 0.829,-0.828 0,-0.825 0.004,-0.829 0.893,-0.894 1.074,-0.077 1.35,-0.965 0.626,-2.01 -1.029,-1.485 -0.654,-2.363 1.008,-2.363 0.906,0 1.046,-0.057 1.046,-0.421 0,-0.35 0.14,-0.42 0.841,-0.42 h 0.841 v -0.841 -0.841 h 0.841 c 0.838,0 0.84,-0.002 0.84,-0.828 0,-0.825 0.005,-0.829 0.894,-0.894 l 0.893,-0.064 0.061,-1.734 0.061,-1.735 h 0.832 c 0.831,0 0.833,-10e-4 0.833,-0.84 v -0.841 h 0.872 0.872 l -0.134,-1.892 -0.134,-1.892 h 1.048 1.049 v -0.735 c 0,-0.718 0.02,-0.736 0.841,-0.736 h 0.841 v -0.841 -0.841 h 0.87 0.871 l -0.142,-1.891 -0.143,-1.892 h 0.953 c 0.947,0 0.954,-0.005 0.954,-0.724 0,-0.701 0.028,-0.725 0.893,-0.788 0.864,-0.062 0.895,-0.09 0.958,-0.841 0.06,-0.729 0.111,-0.78 0.841,-0.841 0.751,-0.062 0.778,-0.093 0.84,-0.957 0.065,-0.889 0.069,-0.894 0.894,-0.894 h 0.829 v -1.681 -1.682 h 0.84 c 0.837,0 0.841,-0.004 0.841,-0.817 0,-0.807 0.011,-0.818 0.946,-0.959 0.937,-0.14 0.946,-0.149 0.946,-0.969 v -0.828 h 0.86 0.861 l -0.072,-1.839 -0.073,-1.84 0.894,-0.064 c 0.862,-0.063 0.893,-0.09 0.893,-0.776 0,-0.687 0.031,-0.714 0.893,-0.776 0.867,-0.063 0.895,-0.088 0.959,-0.853 0.063,-0.767 0.088,-0.789 0.893,-0.789 0.826,0 0.828,-0.002 0.828,-0.84 0,-0.701 0.07,-0.841 0.421,-0.841 0.398,0 0.42,-0.14 0.42,-2.628 0,-2.487 -0.022,-2.627 -0.42,-2.627 -0.351,0 -0.421,-0.14 -0.421,-0.841 0,-0.838 -0.002,-0.841 -0.828,-0.841 -0.805,0 -0.83,-0.021 -0.893,-0.788 -0.062,-0.742 -0.118,-0.799 -0.959,-0.975 -0.864,-0.182 -0.893,-0.214 -0.893,-0.999 0,-0.806 -0.005,-0.811 -0.841,-0.811 h -0.841 v -0.841 -0.84 h -1.786 -1.787 v -1.787 -1.787 h 0.946 0.946 v -0.84 -0.841 h 0.841 0.84 v -1.682 c 0,-1.638 0.013,-1.681 0.509,-1.681 1.257,0 1.608,-1.126 0.753,-2.418 -0.803,-1.212 -0.37,-2.016 1.182,-2.194 l 1.025,-0.118 0.063,-1.208 0.063,-1.209 h 0.83 0.83 V 15.776 9.902 l -0.998,-0.064 -0.999,-0.064 0.093,-0.841 c 0.051,-0.462 0.099,-1.266 0.105,-1.786 L 397.373,6.201 396.488,6.137 395.603,6.072 395.542,4.35 395.481,2.627 394.693,2.562 C 393.926,2.499 393.904,2.474 393.904,1.669 V 0.841 h -2.627 c -2.487,0 -2.627,-0.023 -2.627,-0.421 0,-0.412 -0.141,-0.42 -6.937,-0.42 -6.796,0 -6.936,0.008 -6.936,0.42 M 139.989,59.368 c 0,0.691 0.049,0.748 0.631,0.748 0.716,0 0.833,-0.392 0.263,-0.882 -0.774,-0.664 -0.894,-0.646 -0.894,0.134 m 75.67,39.844 c -0.587,0.588 -0.524,0.841 0.211,0.841 0.56,0 0.63,-0.071 0.63,-0.631 0,-0.735 -0.253,-0.798 -0.841,-0.21 m -60.115,0.42 c 0,0.28 0.14,0.421 0.42,0.421 0.477,0 0.539,-0.218 0.168,-0.589 -0.37,-0.371 -0.588,-0.308 -0.588,0.168 m 15.764,39.937 c 0,0.29 0.141,0.42 0.453,0.42 0.44,0 0.442,-0.012 0.073,-0.42 -0.209,-0.231 -0.413,-0.42 -0.453,-0.42 -0.04,0 -0.073,0.189 -0.073,0.42 m 29.112,0 c -0.369,0.408 -0.367,0.42 0.073,0.42 0.313,0 0.453,-0.13 0.453,-0.42 0,-0.231 -0.033,-0.42 -0.073,-0.42 -0.04,0 -0.243,0.189 -0.453,0.42 m -16.92,31.109 c 0,0.56 0.07,0.63 0.63,0.63 0.758,0 0.793,-0.195 0.144,-0.804 -0.645,-0.606 -0.774,-0.577 -0.774,0.174 m -41.284,7.83 c 0.636,1.118 1.347,1.312 1.347,0.367 0,-0.582 -0.057,-0.63 -0.748,-0.63 -0.538,0 -0.706,0.074 -0.599,0.263 m 12.277,32.886 c 0.173,0.063 0.528,0.309 0.788,0.545 l 0.473,0.431 v -0.435 c 0,-0.466 -0.389,-0.7 -1.121,-0.673 -0.306,0.011 -0.352,0.054 -0.14,0.132 m 12.66,33.312 c 0.13,0.389 0.582,0.454 0.582,0.083 0,-0.183 -0.15,-0.333 -0.333,-0.333 -0.183,0 -0.295,0.112 -0.249,0.25 m 71.46,37.417 c -0.371,0.371 -0.309,0.589 0.168,0.589 0.28,0 0.42,-0.141 0.42,-0.421 0,-0.476 -0.218,-0.539 -0.588,-0.168 m 159.705,151.055 c 0,1.309 -0.586,1.693 -1.88,1.233 -0.85,-0.301 -1.832,-0.36 -6.083,-0.36 h -5.069 v 0.841 0.841 h -5.254 -5.255 v 0.841 0.841 l -4.467,0.024 c -2.457,0.013 -4.301,0.068 -4.099,0.121 0.269,0.07 0.368,0.31 0.368,0.895 0,1.095 -0.363,1.359 -1.396,1.016 -0.594,-0.198 -2.232,-0.255 -6.118,-0.214 l -5.308,0.057 v 0.846 c 0,0.96 -0.72,1.879 -1.472,1.879 -0.548,0 -1.681,-0.57 -1.681,-0.846 0,-0.127 -1.689,-0.205 -4.414,-0.205 h -4.414 v 0.837 0.837 l -5.202,0.056 -5.202,0.057 -0.066,0.788 -0.065,0.788 h -3.639 c -4.801,0 -4.954,0.033 -4.954,1.077 v 0.815 h -5.465 -5.465 v 0.812 c 0,1.693 -1.279,2.408 -2.489,1.39 l -0.63,-0.529 -4.273,0.056 -4.273,0.057 -0.065,0.784 -0.065,0.784 -4.244,0.057 -4.244,0.057 -0.065,0.893 -0.065,0.894 h -4.297 -4.296 v 0.84 0.841 h -5.676 -5.675 v 0.841 c 0,1.485 -1.293,2.034 -2.407,1.022 -0.11,-0.1 -2.167,-0.181 -4.571,-0.181 h -4.372 v 0.841 0.84 l -3.416,0.026 c -5.657,0.042 -5.087,-0.065 -5.162,0.973 l -0.065,0.893 h -3.304 -3.304 l 0.077,0.8 c 0.105,1.11 -0.321,1.449 -1.41,1.123 -0.513,-0.153 -2.693,-0.241 -5.984,-0.241 h -5.178 v 0.84 0.841 l -4.887,0.024 c -2.688,0.014 -5.053,0.008 -5.255,-0.013 -0.302,-0.031 -0.368,0.134 -0.368,0.922 v 0.959 h -3.468 -3.468 v 0.841 0.84 h -4.291 -4.29 l -0.142,0.841 -0.142,0.841 h -4.976 -4.975 l 0.073,0.916 c 0.089,1.111 -0.176,1.271 -1.601,0.967 -0.545,-0.117 -2.835,-0.186 -5.09,-0.154 l -4.099,0.058 -0.064,0.893 -0.065,0.893 h -3.456 -3.456 v 0.841 0.841 h -4.309 -4.309 v 0.837 0.836 l -4.677,0.057 -4.677,0.057 -0.063,0.864 c -0.085,1.167 -0.666,1.452 -2.084,1.022 -1.02,-0.31 -6.599,-0.449 -7.294,-0.182 -0.225,0.086 -0.333,0.393 -0.333,0.945 v 0.819 h -3.153 -3.153 v 0.913 c 0,1.383 -0.465,1.71 -1.666,1.172 -0.817,-0.366 -1.318,-0.407 -4.306,-0.356 l -3.381,0.057 -0.065,0.785 -0.065,0.784 -4.875,0.057 -4.874,0.056 -0.064,0.877 c -0.082,1.126 -0.385,1.383 -1.318,1.116 -0.395,-0.114 -2.35,-0.206 -4.345,-0.206 h -3.627 v 0.84 0.841 h -4.309 -4.309 v 0.841 0.841 h -3.468 -3.468 v 0.84 0.841 l -5.308,0.025 c -2.919,0.013 -5.142,0.067 -4.939,0.12 0.269,0.07 0.367,0.311 0.367,0.896 0,1.076 -0.373,1.362 -1.404,1.076 -0.441,-0.122 -2.387,-0.223 -4.323,-0.224 l -3.521,-0.001 v 0.837 0.836 l -4.362,0.057 -4.361,0.057 -0.065,0.783 -0.065,0.783 -3.403,0.058 -3.404,0.057 -0.065,0.788 -0.065,0.789 -5.295,0.002 c -6.793,0.003 -6.871,0.015 -6.871,1.076 v 0.813 h -5.968 c -6.487,0 -6.223,-0.049 -6.223,1.174 v 0.508 h -5.991 -5.99 v 0.841 0.841 H 21.87 14.942 l -0.774,0.525 c -1.257,0.853 -2.187,0.26 -2.187,-1.395 v -0.812 H 9.879 7.777 v -2.627 -2.628 h 0.841 0.841 v -1.669 -1.67 l 0.893,-0.064 0.893,-0.065 0.061,-1.734 0.062,-1.734 H 12.2 c 0.831,0 0.832,-0.002 0.832,-0.841 v -0.841 h 0.841 0.841 v -0.841 c 0,-0.815 0.021,-0.84 0.71,-0.84 1.009,0 1.212,-0.361 1.139,-2.031 l -0.063,-1.438 -0.893,-0.064 c -0.889,-0.065 -0.893,-0.069 -0.893,-0.894 0,-0.826 -0.002,-0.828 -0.841,-0.828 -0.837,0 -0.841,-0.004 -0.841,-0.819 0,-0.948 -0.196,-1.073 -1.682,-1.073 -1.485,0 -1.681,0.125 -1.681,1.073 v 0.819 H 8.723 7.777 v 0.841 0.84 H 6.936 6.096 v 0.841 0.841 H 5.255 4.414 v 1.774 1.775 l -0.893,0.065 c -0.867,0.062 -0.895,0.087 -0.959,0.852 -0.063,0.767 -0.088,0.789 -0.893,0.789 H 0.841 v 1.786 c 0,1.647 -0.033,1.787 -0.421,1.787 -0.41,0 -0.42,0.14 -0.42,6.096 0,5.892 0.014,6.095 0.408,6.095 0.319,0 0.422,0.171 0.473,0.789 0.061,0.745 0.108,0.791 0.853,0.853 0.618,0.051 0.788,0.154 0.788,0.473 0,0.401 0.402,0.408 25.224,0.408 24.997,0 25.223,-0.004 25.223,-0.416 0,-0.4 0.174,-0.419 4.362,-0.473 l 4.361,-0.057 0.065,-0.788 0.066,-0.789 2.982,-0.003 c 3.393,-0.004 3.452,-0.023 3.545,-1.139 l 0.068,-0.822 6.254,0.052 6.253,0.052 v -0.857 -0.856 h 4.309 4.309 v -0.841 -0.841 l 2.995,10e-4 h 2.995 l -0.07,-1.022 c -0.117,-1.681 1.463,-2.42 2.501,-1.169 0.196,0.236 0.968,0.299 3.668,0.299 3.695,0 3.675,0.006 3.675,-1.174 v -0.508 h 5.15 5.15 v -0.836 -0.837 l 4.361,-0.057 4.362,-0.057 0.065,-0.788 0.065,-0.788 h 2.825 2.825 v -1.051 c 0,-1.787 1.2,-2.447 2.484,-1.366 0.61,0.513 0.706,0.525 4.01,0.525 h 3.385 v -0.837 -0.837 l 5.203,-0.056 5.202,-0.056 0.065,-0.789 0.066,-0.788 h 4.296 4.296 v -0.841 -0.84 h 3.977 c 4.674,0 4.641,0.007 4.641,-1.074 v -0.818 h 3.45 3.45 l 0.142,-0.841 0.142,-0.841 h 4.921 4.921 v -0.815 c 0,-1.125 0.33,-1.346 1.602,-1.075 0.574,0.123 2.829,0.194 5.124,0.162 l 4.099,-0.058 0.065,-0.894 0.064,-0.893 h 3.456 3.456 v -0.841 -0.841 h 4.309 4.309 v -0.836 -0.837 l 4.782,-0.057 4.782,-0.056 0.064,-0.871 c 0.102,-1.399 0.647,-1.744 1.84,-1.165 0.875,0.425 1.257,0.459 5.121,0.459 4.569,0 4.431,0.04 4.431,-1.278 v -0.613 h 4.309 4.309 v -0.836 -0.835 l 3.1,-0.058 3.1,-0.058 -0.067,-0.773 c -0.108,-1.242 0.55,-1.769 1.593,-1.278 0.671,0.315 1.543,0.378 5.936,0.429 l 5.15,0.06 v -1.006 c 0,-0.991 0.009,-1.004 0.631,-0.942 1.865,0.189 8.73,0.262 9.357,0.101 0.651,-0.168 0.739,-0.275 0.797,-0.965 l 0.066,-0.776 h 4.296 4.296 v -0.841 -0.84 h 4.309 4.309 v -0.841 -0.841 h 6.096 6.095 v -0.946 -0.946 h 5.255 5.255 v -0.84 -0.841 h 4.309 4.309 v -0.837 -0.836 l 4.362,-0.057 4.361,-0.057 0.065,-0.788 0.066,-0.788 6.03,-0.025 c 3.317,-0.013 6.206,-0.005 6.421,0.018 1.018,0.107 1.396,-0.177 1.396,-1.048 v -0.837 h 5.15 5.15 v -0.841 -0.841 h 3.783 3.784 v -0.955 c 0,-0.95 0.659,-1.987 1.262,-1.987 0.416,0 1.417,0.608 1.543,0.938 0.106,0.276 0.751,0.323 4.44,0.323 h 4.315 v -0.946 -0.946 h 6.306 6.306 v -0.934 c 0,-1.486 1.383,-2.109 2.584,-1.164 0.513,0.403 0.797,0.421 5.757,0.368 l 5.217,-0.057 0.065,-0.788 0.065,-0.788 h 1.249 1.248 v -4.309 -4.309 h -0.841 c -0.835,0 -0.841,0.005 -0.841,0.808"
       inkscape:connector-curvature="0"
       style="fill:#000000;fill-rule:evenodd;stroke:none" />
    <path
       id="path1"
       d="m 75.67,201.366 v 170.888 h 0.841 c 0.588,0 0.951,-0.129 1.208,-0.431 0.203,-0.237 0.652,-0.709 0.999,-1.05 0.347,-0.341 0.725,-0.723 0.841,-0.849 0.115,-0.126 0.99,-1.009 1.943,-1.962 1.583,-1.582 1.746,-1.822 1.875,-2.766 0.136,-1.001 0.251,-1.143 3.574,-4.428 3.381,-3.344 3.433,-3.408 3.433,-4.301 0,-0.789 0.115,-1.019 0.893,-1.781 0.491,-0.48 1.001,-0.991 1.133,-1.134 0.236,-0.256 1.538,-1.566 1.892,-1.904 0.967,-0.922 1.28,-1.237 1.58,-1.585 0.192,-0.222 0.594,-0.575 0.893,-0.782 0.474,-0.329 0.545,-0.527 0.545,-1.531 0,-1.084 0.042,-1.178 0.7,-1.567 0.385,-0.227 0.828,-0.652 0.985,-0.946 0.157,-0.293 0.583,-0.716 0.946,-0.941 0.363,-0.224 0.767,-0.642 0.897,-0.928 0.131,-0.286 0.513,-0.663 0.849,-0.837 0.608,-0.314 0.878,-0.978 0.878,-2.159 0,-0.381 0.877,-1.378 3.468,-3.94 3.393,-3.355 3.468,-3.449 3.468,-4.315 0,-0.873 0.064,-0.949 4.309,-5.167 4.291,-4.263 4.309,-4.286 4.309,-5.197 0,-0.988 0.212,-1.357 1.088,-1.899 0.309,-0.191 0.623,-0.54 0.698,-0.776 0.075,-0.235 0.411,-0.57 0.748,-0.744 0.337,-0.174 0.757,-0.598 0.934,-0.94 0.178,-0.343 0.585,-0.759 0.905,-0.925 0.32,-0.165 0.713,-0.545 0.873,-0.844 0.16,-0.299 0.606,-0.73 0.991,-0.957 0.647,-0.382 0.7,-0.494 0.7,-1.481 0,-1.023 0.618,-2.099 1.206,-2.099 0.096,0 0.34,-0.281 0.542,-0.623 0.203,-0.343 0.625,-0.775 0.939,-0.961 0.333,-0.196 0.812,-0.85 1.149,-1.567 l 0.578,-1.23 V 168.592 30.478 H 102.575 75.67 V 201.366 M 389.543,44.311 c -1.417,0.102 -1.163,1.722 0.27,1.722 0.734,0 0.89,0.296 0.744,1.418 -0.022,0.173 0.258,0.263 0.816,0.263 1.289,0 1.347,-1.615 0.062,-1.721 -0.748,-0.062 -0.794,-0.108 -0.894,-0.906 l -0.105,-0.841 -0.893,0.065 m -71.782,19.395 c -0.876,0.51 -0.475,1.664 0.578,1.664 0.93,0 0.946,-0.011 0.946,-0.693 0,-1.074 -0.643,-1.484 -1.524,-0.971 M 293.139,95.13 c -0.44,1.145 -0.17,1.671 0.818,1.592 l 0.946,-0.075 v -0.925 -0.924 h -0.819 c -0.552,0 -0.859,0.108 -0.945,0.332 m 43.522,22.509 c -0.077,0.077 -0.14,0.55 -0.14,1.051 v 0.911 h 0.934 c 1.108,0 1.248,-0.168 1.062,-1.269 -0.138,-0.814 -1.301,-1.248 -1.856,-0.693 m 7.585,3.183 c -1.199,0.099 -1.243,1.721 -0.046,1.721 0.816,0 1.007,-0.252 0.902,-1.188 -0.063,-0.553 -0.127,-0.593 -0.856,-0.533 m -115.765,58.684 c 0,0.347 0.095,0.631 0.211,0.631 0.115,0 0.21,-0.284 0.21,-0.631 0,-0.347 -0.095,-0.631 -0.21,-0.631 -0.116,0 -0.211,0.284 -0.211,0.631 m -81.746,158.569 c -0.584,0.703 0.095,2.02 1.04,2.02 h 0.832 v -1.115 -1.115 l -0.809,-0.048 c -0.502,-0.03 -0.906,0.068 -1.063,0.258 m -19.315,24.132 c -0.139,0.139 -0.252,0.711 -0.252,1.271 0,0.819 -0.102,1.109 -0.521,1.482 -0.63,0.561 -0.627,0.557 -3.842,3.804 -2.415,2.441 -2.584,2.665 -2.714,3.612 -0.133,0.969 -0.279,1.151 -3.538,4.394 -2.912,2.899 -3.417,3.497 -3.528,4.178 -0.156,0.963 -0.721,1.66 -4.197,5.18 -2.642,2.675 -2.68,2.727 -2.68,3.668 0,0.652 -0.117,1.054 -0.368,1.266 -0.202,0.171 -0.617,0.56 -0.922,0.865 -0.304,0.304 -0.683,0.683 -0.84,0.84 -0.158,0.158 -0.547,0.549 -0.865,0.87 -0.318,0.32 -0.778,0.772 -1.023,1.003 -0.245,0.231 -0.587,0.575 -0.76,0.764 -0.502,0.55 -1.332,1.367 -1.762,1.734 -0.289,0.248 -0.396,0.62 -0.396,1.376 0,0.932 -0.069,1.085 -0.683,1.514 -0.376,0.262 -0.76,0.602 -0.854,0.755 -0.094,0.153 -2.79,2.877 -5.991,6.053 -3.201,3.177 -5.961,5.934 -6.135,6.127 -1.07,1.194 -2.802,2.55 -3.424,2.682 -0.313,0.066 -0.798,0.167 -1.078,0.224 -0.279,0.058 -0.702,0.42 -0.94,0.805 -0.238,0.385 -0.667,0.807 -0.954,0.937 -0.286,0.131 -0.658,0.505 -0.828,0.832 -0.169,0.327 -0.566,0.733 -0.883,0.902 -0.317,0.17 -0.713,0.639 -0.88,1.044 -0.167,0.404 -0.437,0.886 -0.6,1.07 -0.247,0.279 -0.288,1.785 -0.242,9.038 l 0.055,8.704 h 77.247 77.246 l 0.053,-25.171 0.054,-25.17 H 179.927 129.48 v -13.453 -13.452 h -0.904 c -0.497,0 -1.017,0.113 -1.156,0.252 m -66.726,31.848 c -0.605,0.092 -0.867,0.626 -0.699,1.426 0.049,0.231 0.096,0.491 0.105,0.578 0.027,0.27 1.633,0.172 1.871,-0.113 0.283,-0.342 -0.111,-2.057 -0.462,-2.01 -0.131,0.017 -0.497,0.071 -0.815,0.119 m -14.514,24.39 c -0.049,0.086 -0.078,0.583 -0.065,1.103 l 0.023,0.946 0.859,0.063 c 1.145,0.084 1.394,-0.229 1.101,-1.385 -0.217,-0.853 -1.563,-1.364 -1.918,-0.727 m 318.297,20.021 v 0.84 h 0.841 0.841 v -0.84 -0.841 h -0.841 -0.841 v 0.841 m -14.049,1.661 c -0.048,0.805 -0.032,0.824 0.792,0.963 1.091,0.185 1.276,0.046 1.276,-0.955 v -0.829 h -1.01 -1.01 l -0.048,0.821 m 10.196,5.836 c -0.077,0.077 -0.141,0.55 -0.141,1.05 v 0.911 h 1.051 1.051 v -0.846 c 0,-0.983 -1.334,-1.742 -1.961,-1.115 m -51.848,1.096 c 0,0.858 0.275,1.066 1.418,1.073 0.421,0.002 0.473,-0.102 0.473,-0.943 v -0.946 h -0.946 -0.945 v 0.816 m -65.994,11.782 c -0.474,0.886 -0.284,1.227 0.728,1.308 l 0.946,0.075 v -0.895 c 0,-1.033 -1.196,-1.382 -1.674,-0.488 m -84.944,15.35 c -0.193,0.116 -0.345,0.514 -0.362,0.945 l -0.028,0.744 h 0.952 0.952 l -0.065,-0.893 c -0.069,-0.95 -0.655,-1.272 -1.449,-0.796 m -34.612,6.882 c -0.264,0.051 -0.474,0.247 -0.475,0.445 -0.002,0.194 -0.06,0.566 -0.13,0.826 -0.118,0.44 -0.06,0.473 0.844,0.473 h 0.97 v -0.946 c 0,-0.999 -0.037,-1.024 -1.209,-0.798 m 7.745,6.659 c -0.137,0.165 -0.226,0.692 -0.198,1.17 l 0.051,0.87 1.062,-0.062 1.062,-0.062 0.063,-0.868 c 0.059,-0.798 0.017,-0.879 -0.525,-1.008 -0.324,-0.078 -0.741,-0.186 -0.927,-0.241 -0.186,-0.055 -0.451,0.036 -0.588,0.201 m -42.97,0.48 c -0.606,0.606 -0.117,1.541 0.806,1.541 h 0.946 v -0.841 c 0,-0.82 -1.166,-1.286 -1.752,-0.7 m 8.415,6.509 c -0.081,0.081 -0.147,0.561 -0.147,1.067 v 0.921 l 0.946,-0.049 0.946,-0.049 v -0.907 c 0,-0.818 -0.049,-0.906 -0.508,-0.906 -0.28,0 -0.64,-0.051 -0.8,-0.112 -0.16,-0.061 -0.357,-0.046 -0.437,0.035"
       inkscape:connector-curvature="0"
       style="fill:#ffff81;fill-rule:evenodd;stroke:none" />
    <path
       id="path2"
       d=""
       inkscape:connector-curvature="0"
       style="fill:#00ffff;fill-rule:evenodd;stroke:none" />
    <path
       id="path3"
       d="m 397.368,8.042 c -0.052,0.143 -0.119,0.592 -0.15,0.996 l -0.056,0.736 1.001,0.064 1,0.064 -0.036,-0.957 c -0.02,-0.527 -0.092,-0.968 -0.16,-0.981 -0.897,-0.171 -1.519,-0.14 -1.599,0.078 m -1.02,16.118 c -1.517,0.211 -1.944,0.946 -1.242,2.134 0.38,0.645 1.75,0.896 2.07,0.379 0.136,-0.221 0.376,-2.741 0.255,-2.683 -0.032,0.016 -0.519,0.092 -1.083,0.17 M 242.705,32.3 c -0.078,0.077 -0.141,0.455 -0.141,0.841 0,0.601 -0.072,0.7 -0.508,0.7 -1.145,0 -1.173,0.066 -1.173,2.755 v 2.5 h -0.841 -0.841 v 1.787 1.786 h -0.841 c -0.462,0 -0.852,0.095 -0.867,0.211 -0.014,0.115 -0.049,0.304 -0.078,0.42 -0.029,0.116 -0.065,1.198 -0.079,2.405 l -0.026,2.194 -0.789,0.065 -0.788,0.065 -0.061,1.629 -0.062,1.629 h -0.832 -0.832 v 1.787 1.787 h -0.84 -0.841 v 1.669 1.67 l -0.893,0.064 -0.894,0.065 -0.059,2.563 -0.059,2.562 -0.782,0.065 -0.781,0.065 -0.059,2.575 -0.059,2.575 h -0.835 -0.834 v 1.681 c 0,0.925 -0.071,1.688 -0.158,1.696 -1.674,0.154 -1.56,-0.037 -1.685,2.816 l -0.107,2.425 h -0.684 c -0.839,0 -0.939,0.225 -0.939,2.106 v 1.441 l -0.789,0.066 -0.788,0.065 -0.059,2.575 -0.059,2.575 h -0.834 -0.834 v 1.681 1.682 h -0.819 c -1.036,0 -1.073,0.103 -1.073,2.947 v 2.282 l -0.788,0.066 -0.789,0.065 -0.059,2.575 -0.059,2.575 h -0.834 -0.834 v 1.681 c 0,1.533 -0.038,1.684 -0.421,1.708 -0.231,0.014 -0.515,0.05 -0.63,0.079 -0.116,0.029 -0.305,0.064 -0.421,0.079 -0.127,0.015 -0.21,1.02 -0.21,2.536 v 2.51 l -0.893,0.065 -0.894,0.065 -0.06,1.722 -0.061,1.721 -0.78,0.065 -0.78,0.065 -0.059,2.575 -0.059,2.575 h -0.834 -0.835 v 1.681 1.682 h -0.811 -0.812 l -0.132,1.103 c -0.073,0.607 -0.134,1.784 -0.135,2.615 l -10e-4,1.511 -0.789,0.066 -0.788,0.065 -0.061,1.734 -0.061,1.734 h -0.832 -0.833 v 2.522 2.523 l -0.525,0.026 c -0.289,0.014 -0.644,0.038 -0.788,0.052 -0.191,0.02 -0.279,0.731 -0.322,2.602 l -0.059,2.574 h -0.812 c -0.982,0 -1.067,0.169 -1.067,2.12 v 1.454 h -0.841 -0.84 v 2.627 2.628 h -0.841 -0.841 v 1.669 1.668 l -0.788,0.066 -0.788,0.065 -0.059,2.575 -0.059,2.575 h -0.812 c -0.983,0 -1.067,0.168 -1.067,2.119 v 1.454 h -0.841 -0.841 v 2.51 2.509 l -0.788,0.065 -0.788,0.066 -0.061,1.734 -0.061,1.734 h -0.833 c -0.64,0 -0.839,0.085 -0.864,0.368 -0.018,0.202 -0.054,0.462 -0.081,0.578 -0.027,0.115 -0.06,1.132 -0.073,2.259 l -0.024,2.05 h -0.832 -0.833 l -0.061,-1.734 -0.061,-1.734 -0.782,-0.065 -0.782,-0.065 -0.058,-2.549 -0.059,-2.549 -0.736,-0.084 c -0.405,-0.046 -0.752,-0.1 -0.773,-0.121 -0.02,-0.02 -0.067,-1.123 -0.105,-2.452 l -0.068,-2.415 -0.893,-0.065 -0.894,-0.064 v -1.775 -1.774 h -0.834 -0.834 l -0.059,-2.575 -0.059,-2.575 -0.788,-0.065 -0.789,-0.066 v -1.668 -1.669 h -0.84 -0.841 l -0.002,-1.524 c -0.001,-0.838 -0.062,-2.021 -0.134,-2.628 l -0.133,-1.103 h -0.803 -0.803 l -0.061,-1.734 -0.061,-1.734 -0.788,-0.066 -0.789,-0.065 v -2.487 c 0,-2.675 -0.028,-2.742 -1.173,-2.742 -0.505,0 -0.508,-0.014 -0.508,-2.19 0,-2.745 -0.042,-2.855 -1.074,-2.855 h -0.818 v -1.787 -1.786 h -0.834 -0.834 l -0.059,-2.575 -0.059,-2.575 -0.789,-0.065 -0.788,-0.066 v -1.668 -1.669 h -0.841 -0.841 l -0.026,-2.207 c -0.014,-1.214 -0.05,-2.302 -0.079,-2.418 -0.029,-0.115 -0.064,-0.304 -0.078,-0.42 -0.015,-0.116 -0.401,-0.21 -0.859,-0.21 h -0.832 l -0.061,-1.734 -0.061,-1.734 -0.789,-0.066 -0.788,-0.065 v -2.51 c 0,-1.515 -0.083,-2.52 -0.21,-2.535 -0.116,-0.015 -0.305,-0.05 -0.42,-0.079 -0.116,-0.029 -0.396,-0.065 -0.622,-0.079 -0.365,-0.023 -0.419,-0.21 -0.473,-1.655 l -0.061,-1.629 -0.894,-0.065 -0.893,-0.065 v -2.615 -2.615 h -0.834 -0.835 l -0.059,-2.575 -0.059,-2.575 -0.779,-0.065 -0.78,-0.065 -0.061,-1.616 -0.061,-1.617 -0.782,-0.065 -0.782,-0.065 -0.059,-2.562 -0.059,-2.563 -0.885,-0.064 -0.885,-0.065 -0.061,-1.722 -0.061,-1.722 -0.788,-0.066 -0.788,-0.065 v -2.509 c 0,-2.238 -0.04,-2.514 -0.368,-2.542 -0.202,-0.018 -0.462,-0.054 -0.578,-0.081 -0.116,-0.027 -0.328,-0.06 -0.473,-0.073 -0.186,-0.017 -0.263,-0.514 -0.263,-1.706 v -1.681 h -0.84 -0.841 v -2.295 c 0,-2.858 -0.037,-2.96 -1.074,-2.96 h -0.818 v -1.682 -1.681 h -0.841 -0.841 v -1.787 -1.787 h -0.84 -0.841 v -2.295 c 0,-2.857 -0.037,-2.96 -1.074,-2.96 h -0.818 v -1.681 -1.682 h -1.682 -1.682 l 0.053,53.863 0.053,53.862 0.788,0.065 0.789,0.065 v 2.51 2.51 h 0.613 c 1.203,0 1.278,0.112 1.278,1.914 v 1.659 h 0.841 0.841 v 2.627 2.628 h 0.834 0.835 l 0.059,2.575 0.059,2.575 0.779,0.064 0.78,0.065 0.061,1.617 0.061,1.617 0.893,0.064 0.894,0.065 v 2.615 2.616 h 0.841 0.84 v 2.627 2.628 h 0.841 0.841 v 2.499 c 0,2.69 0.028,2.755 1.173,2.755 0.47,0 0.51,0.084 0.533,1.104 0.013,0.607 0.046,1.198 0.073,1.314 0.027,0.115 0.063,0.375 0.081,0.578 0.024,0.283 0.224,0.368 0.872,0.368 h 0.841 v 2.627 2.627 h 0.841 0.841 v 2.628 2.627 h 0.841 0.84 v 1.682 1.681 h 0.614 c 1.264,0 1.278,0.031 1.278,2.755 v 2.5 h 0.841 0.841 v 2.628 2.627 h 0.834 0.834 l 0.059,2.575 0.059,2.575 0.789,0.065 0.788,0.065 v 1.569 c 0,1.564 0.324,2.085 1.216,1.952 0.629,-0.094 0.675,0.08 0.675,2.55 v 2.522 h 0.841 0.841 v 2.627 2.628 h 0.832 0.833 l 0.061,1.734 0.061,1.734 0.788,0.065 0.788,0.065 0.015,1.827 c 0.026,3.275 0.047,3.323 1.509,3.387 0.325,0.014 0.368,0.262 0.368,2.118 v 2.102 h 0.794 c 1.212,0 1.728,0.469 1.728,1.571 0,1.23 0.128,1.497 0.967,2.015 0.66,0.408 0.715,0.523 0.715,1.504 0,0.994 0.061,1.118 0.946,1.913 l 0.946,0.85 v 1.856 c 0,1.645 0.051,1.897 0.452,2.221 1.225,0.993 1.229,1.001 1.229,2.976 v 1.874 l 0.841,0.666 c 0.769,0.609 0.841,0.751 0.841,1.661 0,0.914 0.077,1.066 0.946,1.846 0.886,0.796 0.945,0.917 0.945,1.922 0,1.493 0.051,1.507 5.209,1.507 5.054,0 5.091,-0.012 5.091,-1.74 0,-0.882 0.078,-1.035 0.841,-1.648 0.771,-0.62 0.84,-0.759 0.84,-1.691 0,-0.736 0.11,-1.11 0.397,-1.355 1.577,-1.35 1.495,-1.174 1.495,-3.207 v -1.884 l 0.841,-0.666 0.841,-0.666 v -1.874 c 0,-1.611 0.059,-1.926 0.42,-2.242 0.231,-0.202 0.61,-0.533 0.841,-0.735 0.313,-0.275 0.42,-0.631 0.42,-1.402 0,-0.954 0.065,-1.084 0.841,-1.699 l 0.841,-0.666 v -1.852 c 0,-1.728 0.037,-1.885 0.547,-2.347 1.425,-1.29 1.345,-1.104 1.345,-3.105 v -1.874 l 0.84,-0.666 0.841,-0.665 v -1.834 c 0,-1.943 0.104,-2.208 1.104,-2.828 0.508,-0.314 0.578,-0.487 0.578,-1.432 0,-1.008 0.059,-1.128 0.946,-1.925 l 0.946,-0.85 v -1.797 -1.796 l 0.84,-0.769 0.841,-0.769 v -1.898 -1.898 l 0.841,-0.666 c 0.774,-0.614 0.841,-0.747 0.841,-1.69 0,-0.941 0.067,-1.077 0.84,-1.699 l 0.841,-0.675 v -1.886 -1.885 l 0.946,-0.85 0.946,-0.85 v -1.836 -1.836 l 0.841,-0.666 0.84,-0.666 v -1.962 -1.961 l 0.841,-0.666 c 0.775,-0.613 0.841,-0.746 0.841,-1.689 0,-0.941 0.068,-1.078 0.841,-1.699 l 0.841,-0.676 v -1.866 c 0,-2.014 -0.081,-1.841 1.495,-3.19 0.333,-0.285 0.396,-0.636 0.396,-2.213 v -1.874 l 0.841,-0.666 c 0.768,-0.608 0.841,-0.751 0.841,-1.659 0,-1.067 0.199,-1.426 1.103,-1.986 0.564,-0.349 0.578,-0.406 0.578,-2.325 v -1.967 l 0.946,-0.775 c 0.869,-0.711 0.946,-0.853 0.946,-1.729 0,-1.013 1.591,-2.964 2.705,-3.318 0.946,-0.3 1.091,-1.889 0.227,-2.494 -0.377,-0.264 -0.354,-0.321 0.437,-1.094 0.717,-0.7 0.835,-0.942 0.835,-1.718 v -0.903 h 0.815 c 0.986,0 1.077,-0.276 1.077,-3.272 v -1.958 l 0.788,-0.065 0.788,-0.065 0.059,-2.563 0.059,-2.562 0.782,-0.065 0.782,-0.065 0.105,-1.682 0.105,-1.681 0.788,-0.065 0.789,-0.066 v -2.509 -2.51 h 0.825 c 0.609,0 0.85,-0.096 0.921,-0.368 0.053,-0.202 0.107,1.548 0.121,3.889 l 0.024,4.256 h 0.847 c 1.355,0 6.93,-5.641 6.93,-7.011 0,-1.15 0.461,-1.607 1.623,-1.607 1.225,0 1.723,-0.49 1.882,-1.852 0.109,-0.93 0.242,-1.201 0.798,-1.625 0.367,-0.28 0.789,-0.737 0.938,-1.015 0.149,-0.278 0.503,-0.63 0.786,-0.782 0.284,-0.152 0.675,-0.545 0.869,-0.873 0.194,-0.329 0.646,-0.771 1.005,-0.982 0.562,-0.332 0.671,-0.541 0.785,-1.506 0.11,-0.926 0.271,-1.259 0.926,-1.912 0.436,-0.436 0.99,-1.007 1.23,-1.27 0.24,-0.264 0.593,-0.621 0.785,-0.794 0.192,-0.174 1.004,-0.978 1.804,-1.787 0.801,-0.809 1.606,-1.593 1.79,-1.742 0.216,-0.176 0.334,-0.608 0.334,-1.228 0,-0.946 0.028,-0.984 2.627,-3.542 2.526,-2.486 2.628,-2.62 2.628,-3.458 0,-0.848 0.097,-0.969 3.445,-4.31 3.376,-3.368 3.449,-3.46 3.594,-4.52 0.12,-0.867 0.274,-1.174 0.779,-1.546 0.347,-0.255 0.765,-0.722 0.929,-1.038 0.164,-0.316 0.562,-0.711 0.884,-0.877 0.323,-0.167 0.695,-0.542 0.828,-0.835 0.133,-0.292 0.51,-0.669 0.837,-0.838 0.327,-0.169 0.727,-0.555 0.889,-0.858 0.162,-0.303 0.599,-0.739 0.971,-0.969 0.602,-0.372 0.692,-0.556 0.822,-1.674 0.127,-1.091 0.227,-1.305 0.756,-1.618 0.335,-0.198 0.61,-0.432 0.61,-0.521 0,-0.088 1.23,-1.387 2.732,-2.885 2.674,-2.666 2.733,-2.745 2.733,-3.647 0,-0.567 0.202,-1.32 0.525,-1.956 l 0.524,-1.034 10e-4,-34.297 c 0.001,-18.864 -0.056,-34.447 -0.127,-34.63 -0.133,-0.347 -46.47,-0.537 -46.815,-0.192 m 146.252,11.854 c -0.11,0.178 0.087,0.224 0.706,0.165 l 0.859,-0.082 0.062,0.845 c 0.06,0.812 0.093,0.848 0.851,0.911 0.728,0.06 0.789,0.116 0.804,0.735 l 0.017,0.671 0.213,-0.585 c 0.247,-0.677 -0.017,-1.138 -0.713,-1.242 -0.396,-0.059 -0.562,-0.261 -1.006,-1.221 -0.178,-0.385 -1.582,-0.539 -1.793,-0.197 m 4.877,10.426 c -0.592,0.593 0.023,2.023 0.83,1.929 1.309,-0.152 1.416,-2.069 0.116,-2.069 -0.443,0 -0.869,0.063 -0.946,0.14 m -74.444,7.427 c 0.072,0.116 0.022,0.211 -0.11,0.211 -0.132,0 -0.198,0.118 -0.147,0.262 0.05,0.145 0.015,0.473 -0.08,0.729 -0.1,0.27 -0.087,0.517 0.03,0.59 0.734,0.453 0.194,1.549 -0.796,1.617 l -0.999,0.069 0.797,0.178 c 0.941,0.21 1.557,-0.199 1.661,-1.103 0.048,-0.412 0.201,-0.574 0.59,-0.626 1.33,-0.178 1.109,-2.137 -0.241,-2.137 -0.503,0 -0.783,0.084 -0.705,0.21 m 57.436,3.38 c -0.273,0.159 -0.368,0.486 -0.368,1.266 v 1.052 l 1.082,-0.064 c 1.41,-0.083 1.664,-0.446 1.133,-1.622 -0.408,-0.905 -1.019,-1.114 -1.847,-0.632 m 4.677,5.431 c 0,1.057 0.186,1.279 1.073,1.279 h 0.819 v -0.946 -0.946 h -0.946 c -0.905,0 -0.946,0.026 -0.946,0.613 m -69.224,-0.263 c -0.077,0.077 -0.14,0.645 -0.14,1.261 v 1.121 h 0.913 c 1.383,0 1.805,-0.548 1.294,-1.681 -0.37,-0.82 -1.548,-1.22 -2.067,-0.701 m 63.969,6.98 c 0,1.291 0.236,1.692 0.918,1.565 0.837,-0.156 0.894,-0.218 1.063,-1.17 l 0.14,-0.789 h -1.06 c -0.897,0 -1.061,0.061 -1.061,0.394 m -24.611,2.777 c -0.758,0.758 -0.052,2.298 1.049,2.291 0.915,-0.005 1.143,-0.298 1.214,-1.556 l 0.067,-1.173 h -0.946 c -0.678,0 -1.069,0.124 -1.384,0.438 m 13.769,10.594 c -0.556,0.847 0.183,2.101 1.246,2.115 0.422,0.006 0.768,-0.071 0.768,-0.17 0,-0.099 0.071,-0.136 0.158,-0.083 0.086,0.054 0.182,-0.461 0.211,-1.143 l 0.054,-1.241 h -1.047 c -0.884,0 -1.101,0.081 -1.39,0.522 m -70.503,4.905 v 0.854 l -0.894,0.065 c -1.408,0.102 -1.46,1.01 -0.057,1.01 1.334,0 2.097,-0.713 1.77,-1.654 -0.392,-1.124 -0.819,-1.267 -0.819,-0.275 m 43.564,22.686 0.051,0.999 -0.998,0.064 c -1.455,0.093 -1.494,0.881 -0.043,0.881 1.65,0 2.34,-0.994 1.569,-2.259 -0.555,-0.911 -0.639,-0.865 -0.579,0.315 m 4.656,2.234 c -0.061,0.159 -0.019,0.609 0.093,0.998 l 0.204,0.709 0.019,-0.788 c 0.018,-0.754 0.05,-0.788 0.742,-0.788 0.398,0 0.782,-0.095 0.853,-0.21 0.08,-0.129 -0.245,-0.211 -0.835,-0.211 -0.626,0 -1.004,0.102 -1.076,0.29 m -25.881,3.52 c -0.13,0.129 -0.204,0.342 -0.165,0.472 0.039,0.131 0.128,0.498 0.198,0.816 0.149,0.679 1.434,0.867 1.673,0.245 0.534,-1.394 -0.719,-2.521 -1.706,-1.533 m 14.18,0.342 c -0.044,0.086 -0.073,0.678 -0.065,1.313 l 0.015,1.157 0.812,0.066 c 1.541,0.127 2.251,-1.204 1.241,-2.326 -0.334,-0.37 -1.843,-0.528 -2.003,-0.21 m -5.303,7.398 c -0.278,1.264 0.034,1.903 0.928,1.903 1.866,0 1.942,-2.344 0.08,-2.481 -0.815,-0.06 -0.875,-0.025 -1.008,0.578 m -7.044,19.945 c -0.235,0.078 -0.27,0.736 -0.078,1.453 0.105,0.389 0.274,0.473 0.955,0.473 h 0.828 l -0.064,-0.998 c -0.065,-1.005 -0.564,-1.287 -1.641,-0.928 m -30.449,9.874 c -1.467,0.106 -5.074,3.78 -5.074,5.169 0,0.85 -0.085,1.015 -0.834,1.617 -0.631,0.507 -0.914,0.944 -1.16,1.788 -0.178,0.615 -0.45,1.192 -0.603,1.284 -0.154,0.091 -0.454,0.45 -0.667,0.797 -0.213,0.346 -0.772,1.024 -1.241,1.506 -0.47,0.482 -0.997,1.024 -1.17,1.205 -0.173,0.181 -0.529,0.543 -0.79,0.806 -0.738,0.741 -1.477,1.491 -1.885,1.912 -0.205,0.211 -0.736,0.748 -1.179,1.193 -0.611,0.612 -0.833,1.028 -0.919,1.717 -0.123,0.991 -0.085,0.945 -3.871,4.745 -1.181,1.185 -2.258,2.155 -2.394,2.155 -0.55,0 -0.943,0.774 -0.943,1.856 v 1.088 l -3.329,3.321 c -3.176,3.169 -3.335,3.367 -3.466,4.323 -0.124,0.901 -0.302,1.164 -1.793,2.637 -0.91,0.899 -1.739,1.773 -1.841,1.94 -0.102,0.168 -0.488,0.516 -0.857,0.773 -0.368,0.257 -0.727,0.648 -0.797,0.867 -0.07,0.22 -0.44,0.585 -0.823,0.811 -0.608,0.358 -0.715,0.554 -0.843,1.539 -0.119,0.916 -0.293,1.276 -0.923,1.911 -0.73,0.735 -1.411,1.426 -2.144,2.175 -0.173,0.177 -0.599,0.6 -0.945,0.941 -0.993,0.975 -2.053,2.057 -2.628,2.683 -0.173,0.188 -0.717,0.717 -1.209,1.175 -0.783,0.73 -0.893,0.943 -0.893,1.736 0,0.85 -0.099,1.003 -1.649,2.537 -1.043,1.033 -1.816,2.01 -2.102,2.658 l -0.453,1.025 v 29.506 29.506 h -0.818 c -0.549,0 -0.86,0.108 -0.945,0.329 -0.166,0.434 -0.168,157.179 -10e-4,157.613 0.116,0.303 2.56,0.334 26.06,0.334 h 25.933 l 0.114,-0.473 c 0.062,-0.26 0.088,-63.09 0.056,-139.622 l -0.057,-139.148 -0.917,0.065 m -59.724,17.696 c 0,0.347 -0.095,0.631 -0.21,0.631 -0.116,0 -0.211,-0.284 -0.211,-0.631 0,-0.347 0.095,-0.631 0.211,-0.631 0.115,0 0.21,0.284 0.21,0.631 m 6.656,47.224 c -0.175,0.175 -0.183,1.185 -0.013,1.629 0.086,0.224 0.394,0.333 0.946,0.333 h 0.819 v -0.924 c 0,-0.648 -0.1,-0.961 -0.333,-1.051 -0.442,-0.169 -1.244,-0.162 -1.419,0.013 m -7.122,8.803 c -0.192,0.192 0.205,1.615 0.503,1.804 0.393,0.249 1.014,0.225 1.014,-0.04 0,-0.122 0.094,-0.164 0.21,-0.093 0.128,0.08 0.21,-0.243 0.21,-0.828 v -0.958 h -0.911 c -0.501,0 -0.963,0.052 -1.026,0.115 m -99.619,72.547 c -0.272,0.642 -0.682,1.199 -1.041,1.411 -0.327,0.193 -0.759,0.631 -0.962,0.974 -0.202,0.342 -0.446,0.623 -0.542,0.623 -0.588,0 -1.206,1.076 -1.206,2.099 0,0.987 -0.053,1.099 -0.7,1.481 -0.385,0.227 -0.831,0.658 -0.991,0.957 -0.16,0.299 -0.553,0.679 -0.873,0.844 -0.32,0.166 -0.727,0.582 -0.905,0.925 -0.177,0.342 -0.597,0.766 -0.934,0.94 -0.337,0.174 -0.673,0.509 -0.748,0.744 -0.075,0.236 -0.389,0.585 -0.698,0.776 -0.876,0.542 -1.088,0.911 -1.088,1.899 0,0.911 -0.018,0.934 -4.309,5.197 -4.245,4.218 -4.309,4.294 -4.309,5.167 0,0.866 -0.075,0.96 -3.468,4.315 -2.591,2.562 -3.468,3.559 -3.468,3.94 0,1.181 -0.27,1.845 -0.878,2.159 -0.336,0.174 -0.718,0.551 -0.849,0.837 -0.13,0.286 -0.534,0.704 -0.897,0.928 -0.363,0.225 -0.789,0.648 -0.946,0.941 -0.157,0.294 -0.6,0.719 -0.985,0.946 -0.658,0.389 -0.7,0.483 -0.7,1.567 0,1.004 -0.071,1.202 -0.545,1.531 -0.299,0.207 -0.701,0.56 -0.893,0.782 -0.3,0.348 -0.613,0.663 -1.58,1.585 -0.354,0.338 -1.656,1.648 -1.892,1.904 -0.132,0.143 -0.642,0.654 -1.133,1.134 -0.778,0.762 -0.893,0.992 -0.893,1.781 0,0.893 -0.052,0.957 -3.433,4.301 -3.323,3.285 -3.438,3.427 -3.574,4.428 -0.129,0.944 -0.292,1.184 -1.875,2.766 -0.953,0.953 -1.828,1.836 -1.943,1.962 -0.116,0.126 -0.494,0.508 -0.841,0.849 -0.347,0.341 -0.796,0.813 -0.999,1.05 -0.257,0.302 -0.62,0.431 -1.208,0.431 -0.463,0 -0.841,0.095 -0.841,0.211 0,0.373 1.788,0.242 2.155,-0.158 0.186,-0.202 1.565,-1.605 3.067,-3.117 2.565,-2.584 2.738,-2.81 2.882,-3.772 0.148,-0.987 1.046,-2.103 3.808,-4.734 0.135,-0.129 0.529,-0.518 0.876,-0.865 0.347,-0.347 0.725,-0.725 0.841,-0.841 0.115,-0.115 0.501,-0.479 0.857,-0.807 0.559,-0.516 0.648,-0.743 0.648,-1.66 0,-0.965 0.057,-1.091 0.627,-1.386 0.345,-0.178 0.775,-0.61 0.956,-0.96 0.181,-0.35 0.568,-0.745 0.86,-0.878 0.292,-0.133 0.671,-0.512 0.841,-0.841 0.17,-0.329 0.549,-0.708 0.841,-0.841 0.292,-0.133 0.667,-0.506 0.834,-0.828 0.167,-0.322 0.582,-0.73 0.924,-0.907 0.789,-0.408 1.053,-0.909 1.053,-1.996 0,-0.82 1.491,-2.696 2.793,-3.514 0.146,-0.092 0.434,-0.431 0.639,-0.754 0.206,-0.323 0.605,-0.693 0.888,-0.822 0.515,-0.235 0.932,-1.229 0.934,-2.229 0.001,-0.348 0.986,-1.464 3.469,-3.932 3.459,-3.436 3.469,-3.448 3.469,-4.391 0,-0.83 0.088,-1.011 0.727,-1.499 0.4,-0.305 0.785,-0.737 0.856,-0.959 0.07,-0.222 0.403,-0.546 0.74,-0.72 0.337,-0.175 0.752,-0.588 0.923,-0.919 0.172,-0.331 0.646,-0.799 1.055,-1.04 0.409,-0.241 0.743,-0.583 0.743,-0.758 0,-0.176 0.371,-0.554 0.824,-0.84 0.454,-0.287 0.886,-0.714 0.961,-0.951 0.075,-0.237 0.411,-0.573 0.746,-0.746 0.794,-0.41 1.043,-0.908 1.043,-2.087 0,-0.851 0.075,-1.008 0.651,-1.359 0.359,-0.218 0.825,-0.681 1.037,-1.029 0.211,-0.348 0.581,-0.695 0.822,-0.771 0.24,-0.077 0.584,-0.423 0.763,-0.77 0.179,-0.346 0.647,-0.82 1.039,-1.051 0.393,-0.232 0.772,-0.606 0.844,-0.832 0.072,-0.226 0.383,-0.567 0.692,-0.758 0.878,-0.542 1.088,-0.911 1.088,-1.908 0,-0.879 0.082,-1.004 1.667,-2.541 1.197,-1.161 1.757,-1.878 1.987,-2.547 0.449,-1.301 0.219,-1.349 -0.323,-0.067 m 17.369,29.582 c -0.585,0.585 -0.443,1.432 0.361,2.149 0.482,0.431 0.477,0.502 0.063,-0.935 -0.205,-0.712 0.248,-1.132 1.138,-1.055 0.577,0.05 0.765,-0.02 0.82,-0.302 0.119,-0.621 -1.729,-0.51 -2.382,0.143 m -6.26,9.083 c -0.181,0.18 -0.192,1.184 -0.019,1.635 0.086,0.224 0.393,0.333 0.946,0.333 h 0.818 v -1.01 -1.01 l -0.8,-0.047 c -0.439,-0.026 -0.865,0.018 -0.945,0.099 m -12.758,15.21 c -0.297,0.297 -0.421,0.7 -0.421,1.376 0,0.759 -0.111,1.057 -0.544,1.452 -0.299,0.274 -0.654,0.608 -0.788,0.742 -5.727,5.732 -5.615,5.602 -5.747,6.717 -0.104,0.875 -0.245,1.149 -0.818,1.586 -0.381,0.29 -0.753,0.718 -0.827,0.951 -0.073,0.232 -0.415,0.568 -0.759,0.746 -0.343,0.177 -0.73,0.554 -0.859,0.837 -0.128,0.283 -0.551,0.701 -0.938,0.93 -0.387,0.228 -0.806,0.631 -0.929,0.894 -0.124,0.264 -0.521,0.668 -0.883,0.9 -0.439,0.281 -0.779,0.76 -1.023,1.446 -0.202,0.564 -0.552,1.226 -0.778,1.471 -0.226,0.245 -0.554,0.794 -0.73,1.22 -0.181,0.441 -0.579,0.909 -0.925,1.088 -0.333,0.172 -0.715,0.552 -0.848,0.844 -0.133,0.293 -0.511,0.671 -0.841,0.841 -0.329,0.17 -0.707,0.549 -0.84,0.841 -0.134,0.292 -0.527,0.679 -0.876,0.859 -0.819,0.423 -1.066,0.912 -1.066,2.106 0,0.85 -0.076,1.012 -0.613,1.32 -0.336,0.194 -0.765,0.612 -0.953,0.929 -0.187,0.318 -0.613,0.738 -0.946,0.935 -0.333,0.196 -0.708,0.582 -0.833,0.858 -0.126,0.275 -0.496,0.654 -0.823,0.842 -0.327,0.187 -0.749,0.609 -0.936,0.936 -0.188,0.327 -0.572,0.7 -0.854,0.828 -0.619,0.282 -0.979,1.008 -0.979,1.979 0,0.838 -13.927,15.076 -15.296,15.637 -0.379,0.155 -0.761,0.413 -0.851,0.573 -0.089,0.159 -0.678,0.478 -1.308,0.709 -0.631,0.23 -1.186,0.536 -1.234,0.68 -0.048,0.143 -0.91,1.065 -1.915,2.048 -1.106,1.082 -1.922,2.07 -2.068,2.505 -0.357,1.064 -0.1,1.06 0.357,-0.006 0.229,-0.534 0.638,-1.054 0.969,-1.231 0.315,-0.169 0.711,-0.574 0.88,-0.901 0.17,-0.327 0.542,-0.701 0.828,-0.832 0.287,-0.13 0.716,-0.552 0.954,-0.937 0.238,-0.385 0.661,-0.747 0.94,-0.805 0.28,-0.057 0.765,-0.158 1.078,-0.224 0.622,-0.132 2.354,-1.488 3.424,-2.682 0.174,-0.193 2.934,-2.95 6.135,-6.127 3.201,-3.176 5.897,-5.9 5.991,-6.053 0.094,-0.153 0.478,-0.493 0.854,-0.755 0.614,-0.429 0.683,-0.582 0.683,-1.514 0,-0.756 0.107,-1.128 0.396,-1.376 0.218,-0.186 0.644,-0.588 0.946,-0.893 0.302,-0.305 0.75,-0.743 0.995,-0.974 0.245,-0.232 0.587,-0.576 0.759,-0.765 0.173,-0.189 0.564,-0.593 0.869,-0.898 0.305,-0.305 0.683,-0.683 0.841,-0.841 0.157,-0.157 0.536,-0.536 0.84,-0.84 0.305,-0.305 0.72,-0.694 0.922,-0.865 0.251,-0.212 0.368,-0.614 0.368,-1.266 0,-0.941 0.038,-0.993 2.68,-3.668 3.476,-3.52 4.041,-4.217 4.197,-5.18 0.111,-0.681 0.616,-1.279 3.528,-4.178 3.259,-3.243 3.405,-3.425 3.538,-4.394 0.13,-0.947 0.299,-1.171 2.714,-3.612 3.215,-3.247 3.212,-3.243 3.842,-3.804 0.419,-0.373 0.521,-0.663 0.521,-1.482 0,-1.253 0.25,-1.523 1.408,-1.523 0.497,0 0.904,-0.095 0.904,-0.21 0,-0.407 -1.865,-0.238 -2.312,0.21 m -61.755,23.639 c -0.075,0.12 -0.16,0.549 -0.188,0.955 l -0.051,0.736 0.939,-0.075 0.939,-0.074 v -0.9 c 0,-0.906 -1.182,-1.369 -1.639,-0.642 m -3.616,8.581 c 0,0.026 0.093,0.37 0.206,0.765 0.143,0.498 0.135,0.804 -0.026,0.997 -0.293,0.354 -1.791,0.367 -1.932,0.017 -0.059,-0.145 -0.114,-0.003 -0.123,0.315 -0.016,0.561 0.017,0.578 1.107,0.578 1.61,0 2.165,-0.693 1.58,-1.975 -0.184,-0.406 -0.812,-0.944 -0.812,-0.697 m -13.798,24.691 c 0.056,0.202 0.159,0.566 0.229,0.81 0.181,0.636 -0.347,0.983 -1.351,0.887 -0.741,-0.07 -0.844,-0.027 -0.844,0.357 0,0.406 0.083,0.428 1.183,0.307 1.597,-0.176 2.063,-0.781 1.521,-1.973 -0.286,-0.627 -0.894,-0.947 -0.738,-0.388 m -8.651,11.864 c -0.138,0.139 -0.252,0.707 -0.252,1.262 v 1.009 h 0.877 c 1.347,0 1.691,-0.424 1.292,-1.593 -0.334,-0.981 -1.279,-1.315 -1.917,-0.678 m 356.328,2.149 c -0.226,0.902 -0.021,1.264 0.9,1.583 1.15,0.398 1.742,-0.039 1.742,-1.284 v -0.808 h -1.257 c -1.154,0 -1.267,0.041 -1.385,0.509 m -29.517,5.587 c 0,0.804 -0.03,0.841 -0.683,0.858 l -0.684,0.018 0.618,0.185 c 0.402,0.12 0.715,0.105 0.894,-0.044 0.32,-0.266 0.376,-1.858 0.065,-1.858 -0.116,0 -0.21,0.378 -0.21,0.841 m -13.703,1.734 -0.065,0.893 -0.893,-0.04 c -1.043,-0.046 -1.149,0.212 -0.274,0.665 1.351,0.699 2.533,-0.03 2.533,-1.561 0,-1.346 -1.204,-1.306 -1.301,0.043 m 31.826,1.956 c -0.365,0.256 -0.467,0.534 -0.467,1.272 v 0.945 l 1.525,-0.04 1.524,-0.041 v -0.829 c -0.002,-1.389 -1.431,-2.113 -2.582,-1.307 m -24.123,3.342 c -0.694,0.693 -0.762,2.426 -0.096,2.426 0.359,0 0.42,-0.14 0.42,-0.952 0,-1.107 0.297,-1.323 1.369,-0.994 0.885,0.272 0.799,-0.212 -0.122,-0.689 -0.802,-0.414 -0.971,-0.392 -1.571,0.209 m -49.492,1.719 v 0.975 l -0.998,-0.129 -0.998,-0.129 0.589,0.521 c 1.157,1.021 2.458,0.28 2.458,-1.4 0,-0.726 -0.055,-0.812 -0.525,-0.812 -0.485,0 -0.526,0.075 -0.526,0.974 m -41.911,6.295 c -0.39,1.016 -0.095,1.542 1.089,1.941 0.937,0.315 1.516,-0.232 1.516,-1.433 v -0.841 h -1.239 c -0.935,0 -1.27,0.082 -1.366,0.333 m -24.3,5.813 v 0.916 l -0.788,-0.056 -0.788,-0.056 0.679,0.233 c 1.031,0.353 2.014,-1.263 1.107,-1.823 -0.128,-0.079 -0.21,0.229 -0.21,0.786 m 15.228,4.213 c -0.402,1.046 -0.024,1.727 0.957,1.727 h 0.946 l 0.065,-0.893 c 0.048,-0.665 -0.013,-0.893 -0.237,-0.893 -0.165,0 -0.595,-0.059 -0.955,-0.131 -0.479,-0.096 -0.686,-0.045 -0.776,0.19 m -12.291,1.418 c -0.313,0.313 -0.417,0.659 -0.381,1.263 l 0.049,0.833 h 1.22 1.22 v -0.946 c 0,-0.52 -0.036,-0.946 -0.08,-0.946 -0.043,0 -0.421,-0.143 -0.838,-0.317 -0.714,-0.298 -0.786,-0.291 -1.19,0.113 m -53.273,2.266 c -0.493,0.493 -0.073,1.673 0.637,1.788 1.153,0.187 1.386,0.013 1.313,-0.986 -0.061,-0.824 -1.384,-1.368 -1.95,-0.802 m 27.165,2.93 c -0.179,0.203 -0.362,0.774 -0.407,1.27 l -0.082,0.903 1.268,-0.062 1.268,-0.061 0.062,-0.85 c 0.058,-0.791 0.011,-0.874 -0.69,-1.208 -0.935,-0.446 -1.018,-0.446 -1.419,0.008 m -61.989,4.813 c 0.073,0.91 0.07,0.915 -0.631,0.933 l -0.704,0.018 0.597,0.179 c 0.992,0.298 1.559,-0.107 1.644,-1.17 0.067,-0.848 0.039,-0.905 -0.454,-0.891 -0.49,0.014 -0.521,0.078 -0.452,0.931 m 25.728,2.418 c -0.145,0.145 -0.263,0.622 -0.263,1.062 v 0.798 h 1.051 1.051 v -0.946 c 0,-0.759 -0.073,-0.946 -0.368,-0.948 -0.202,-0.002 -0.557,-0.054 -0.788,-0.116 -0.231,-0.062 -0.539,0.005 -0.683,0.15 m -43.173,0.336 c -0.246,1.297 -0.148,1.559 0.727,1.951 1.147,0.514 1.615,0.167 1.615,-1.195 v -0.913 h -1.156 c -0.636,0 -1.169,0.071 -1.186,0.157 m -17.416,4.152 c 0,0.923 -0.016,0.946 -0.683,0.964 l -0.683,0.018 0.618,0.184 c 0.386,0.116 0.714,0.106 0.873,-0.026 0.361,-0.301 0.481,-2.086 0.139,-2.086 -0.173,0 -0.264,0.326 -0.264,0.946 m 6.096,5.36 c -0.574,0.573 -0.62,2.591 -0.057,2.483 0.286,-0.055 0.35,-0.252 0.302,-0.925 -0.08,-1.102 0.262,-1.414 1.241,-1.134 1.084,0.311 1.199,0.244 0.551,-0.326 -0.713,-0.628 -1.471,-0.664 -2.037,-0.098 m -40.778,1.681 c 0,0.828 -0.012,0.841 -0.788,0.86 l -0.788,0.019 0.701,0.202 c 0.495,0.142 0.788,0.129 0.998,-0.045 0.336,-0.279 0.41,-1.877 0.087,-1.877 -0.115,0 -0.21,0.379 -0.21,0.841 m 6.2,5.293 c -0.469,0.37 -0.537,0.566 -0.483,1.403 0.094,1.44 0.749,1.515 0.84,0.096 l 0.064,-1.011 0.938,0.075 c 0.822,0.065 0.905,0.035 0.671,-0.247 -0.538,-0.647 -1.431,-0.787 -2.03,-0.316 M 11.981,499.2 c 0,0.578 0.156,1.008 0.513,1.419 l 0.514,0.59 0.8,-0.421 c 1.728,-0.907 1.103,-2.417 -1,-2.417 -0.823,0 -0.827,0.004 -0.827,0.829 m 56.472,0.782 c -0.077,0.078 -0.14,0.495 -0.14,0.929 0,0.434 -0.118,0.836 -0.263,0.894 -0.374,0.151 0.931,0.163 1.668,0.016 0.976,-0.195 1.013,-1.653 0.047,-1.846 -0.845,-0.169 -1.137,-0.167 -1.312,0.007"
       inkscape:connector-curvature="0"
       style="fill:#006699;fill-rule:evenodd;stroke:none" />
  </g>
</svg>
